<svg xmlns="http://www.w3.org/2000/svg" width="13" height="15" viewBox="0 0 13 15" fill="none">
  <path d="M6.69227 8.81157C6.46006 8.91826 6.20563 9.0573 5.6963 9.33683C5.50319 9.44546 5.30138 9.55408 5.11358 9.65643C5.10055 9.6434 5.08703 9.62698 5.07399 9.61347C4.06643 8.53687 2.2029 7.77649 2.28208 6.33056C2.31153 5.80385 2.49257 4.42117 5.86093 2.74206C8.63305 1.37579 10.8389 1.75429 11.2198 2.59385C11.7673 3.79066 10.0375 6.01772 7.17457 6.3407C6.85772 6.40493 6.53048 6.39716 6.21703 6.31794C5.90359 6.23872 5.61195 6.09009 5.36366 5.88303C5.21207 5.7184 5.18938 5.70874 5.13338 5.74157C5.04117 5.78985 5.10055 5.93903 5.13338 6.02448C5.24258 6.2222 5.39032 6.39602 5.56786 6.53566C5.74539 6.6753 5.94913 6.77793 6.16701 6.83748C7.29363 7.08099 8.46827 6.96464 9.52522 6.50485C11.2603 5.8333 12.615 3.96639 12.2182 2.40122C11.8199 0.814322 9.18583 0.290988 6.69372 1.17641C5.13303 1.70234 3.69109 2.53027 2.45009 3.613C1.07706 4.89719 0.85981 6.01338 0.948642 6.48071C1.26824 8.14002 3.55565 9.22 4.47293 10.02C4.4253 10.0457 4.38362 10.0687 4.34789 10.089C3.89022 10.3164 2.14545 11.2284 1.71047 12.193C1.21658 13.286 1.78964 14.0695 2.16814 14.1748C2.73854 14.3115 3.33742 14.2667 3.88109 14.0465C4.42475 13.8263 4.88604 13.4417 5.20048 12.9466C5.46759 12.5361 5.63161 12.0671 5.6786 11.5796C5.72559 11.0921 5.65415 10.6004 5.47036 10.1465C5.57875 10.0599 5.6944 9.98286 5.81603 9.91617C6.04969 9.77809 6.27225 9.64195 6.46971 9.5367C7.14591 9.22041 7.88363 9.05737 8.63015 9.05923C10.1973 9.24366 10.5067 10.2213 10.4473 10.6331C10.4195 10.7792 10.3607 10.9176 10.2749 11.0391C10.1891 11.1606 10.0784 11.2623 9.95007 11.3375C9.84144 11.4065 9.80524 11.4297 9.81489 11.4789C9.82793 11.5513 9.88055 11.548 9.97276 11.5349C10.2082 11.4605 10.4156 11.3166 10.5678 11.1222C10.72 10.9277 10.8097 10.6917 10.8253 10.4453C10.8736 9.47974 9.95297 8.42052 8.3231 8.43017C7.83513 8.43159 7.35208 8.52784 6.90083 8.71356C6.82842 8.7435 6.75809 8.77568 6.68986 8.81012L6.69227 8.81157ZM4.36286 12.5961C3.84242 13.1624 3.11825 13.3763 2.80541 13.1952C2.46747 13.0021 2.6012 12.1645 3.23991 11.5653C3.61789 11.2241 4.02679 10.9188 4.46135 10.6534C4.53714 10.6051 4.64915 10.5414 4.78384 10.4603L4.82005 10.4405L4.89923 10.3922C5.01304 10.7741 5.02336 11.1794 4.92911 11.5667C4.83487 11.9539 4.63946 12.3092 4.36286 12.5961Z" fill="white"/>
</svg>