<svg xmlns="http://www.w3.org/2000/svg" width="27" height="13" viewBox="0 0 27 13" fill="none">
  <path d="M18.211 0.633423L18.127 1.07134C17.9971 1.90127 18.0441 2.13871 18.4003 2.44671L18.7441 2.73119L18.388 4.31935C18.1752 5.26688 17.9142 6.06096 17.7484 6.32192C17.6062 6.54704 17.4404 6.87856 17.4046 7.05664C17.3452 7.26944 17.1436 7.48336 16.8356 7.67264C16.5635 7.8272 16.0292 8.24161 15.6507 8.57425C15.3483 8.84641 15.14 9.01329 15.0268 9.08497L14.6572 9.37729C14.5622 9.51824 14.4907 9.67371 14.4456 9.83761C14.4198 9.95745 14.4344 10.037 14.4724 10.0952C14.5098 10.1512 14.5725 10.1912 14.6606 10.2151C14.7641 10.2386 14.8705 10.2472 14.9764 10.2408C15.2162 10.2244 15.4535 10.1824 15.6843 10.1154C15.7627 10.0941 15.8243 10.0739 15.878 10.056C15.9609 9.95409 16.1524 9.76145 16.4918 9.42657C17.3923 8.53841 17.7361 8.05233 17.3811 8.18337C17.25 8.23041 17.3094 8.11169 17.5345 7.87424C18.0094 7.41168 18.2816 6.7128 18.8505 4.52095C19.3008 2.79055 19.3008 2.76591 19.6323 2.76591C19.788 2.76591 20.2281 2.79279 20.2281 2.79279V0.633423H19.2179H18.211ZM22.5107 4.17823C22.439 4.17823 22.3203 4.28575 22.2497 4.40447C22.1198 4.61727 22.2733 4.74719 24.2288 5.968C25.3902 6.70384 26.3265 7.33104 26.303 7.3792C26.2795 7.41392 25.3309 8.03104 24.1941 8.74225C22.131 10.0213 22.1198 10.0336 22.3091 10.2946C22.5465 10.6026 22.3091 10.709 24.987 9.03793L26.9313 7.7936V6.85728L24.7619 5.51776C23.5893 4.78304 22.5701 4.19055 22.5107 4.17823ZM4.49544 4.30927C4.43608 4.30927 3.41688 4.91408 2.24424 5.63648L0.0512695 6.976V7.91232L2.23192 9.27537C3.44152 10.0213 4.46072 10.6384 4.50776 10.6384C4.5548 10.6384 4.65 10.5309 4.7452 10.401C4.88744 10.1759 4.7676 10.0807 2.76504 8.81281C0.857672 7.61552 0.656071 7.44976 0.846472 7.31984C0.965192 7.23696 1.86567 6.6792 2.83784 6.07552C5.05432 4.71248 4.9356 4.80656 4.75752 4.52207C4.68696 4.40447 4.56712 4.29807 4.49656 4.30927H4.49544ZM14.2216 4.33503C13.8945 4.33279 13.1911 4.8312 11.0855 6.5504C10.9948 6.76656 10.987 6.91552 11.0284 7.01184C11.056 7.0768 11.1042 7.12534 11.1729 7.15744C11.2401 7.19104 11.3275 7.2112 11.4238 7.21904C11.6153 7.23584 11.8415 7.2056 12.0241 7.16976L12.1473 7.14176C12.1899 7.08564 12.2452 7.04036 12.3086 7.0096C12.4385 6.93792 12.9839 6.44064 13.5294 5.90752C14.4892 4.93536 14.7144 4.49631 14.3235 4.35407C14.2918 4.34001 14.2562 4.3335 14.2216 4.33503ZM16.6811 5.0104C16.3932 5.01824 15.8747 5.352 14.9865 6.06096C14.5408 6.42272 14.2585 6.6176 14.1073 6.65792L13.5204 7.1216C13.2998 7.5248 13.2673 7.77456 13.3255 7.91232C13.3401 7.94631 13.3613 7.97707 13.3878 8.00282C13.4143 8.02858 13.4457 8.04883 13.4801 8.06241C13.5653 8.09745 13.6568 8.11461 13.7489 8.1128C13.9687 8.11019 14.1872 8.07817 14.3985 8.0176C14.5084 7.98742 14.6171 7.95304 14.7244 7.91456L14.7569 7.90112L14.8163 7.86976C14.9283 7.72528 15.1859 7.45312 15.5084 7.13952C16.5276 6.15616 17.0484 5.45728 16.942 5.19632C16.8939 5.06976 16.811 5.00592 16.6811 5.0104ZM13.9662 6.22C13.8833 6.22896 13.6974 6.37232 13.3625 6.66576C12.8787 7.0936 12.3511 7.34 12.1686 7.23024L12.0409 7.25712C11.855 7.29408 11.6231 7.32432 11.4159 7.30752C11.3183 7.30182 11.2226 7.27789 11.1337 7.23696C11.05 7.19836 10.9832 7.13071 10.9455 7.04656C10.9041 6.94576 10.9041 6.82032 10.9511 6.66016L10.2231 7.25824L8.57562 8.62129V10.8311L13.974 6.5784C13.9728 6.53183 13.9789 6.48535 13.992 6.44064C14.0334 6.29056 14.0312 6.2144 13.9662 6.22112V6.22ZM16.2891 6.93568C16.2073 6.93568 16.0707 7.05104 15.8523 7.28288C15.5555 7.59984 15.0884 7.90672 14.8409 7.96944L14.8028 7.9896L14.6796 8.03664C14.6117 8.05979 14.5266 8.08518 14.4243 8.1128C14.2227 8.16768 13.9718 8.21809 13.7478 8.21249C13.6421 8.21329 13.5373 8.19272 13.4398 8.15201C13.3473 8.11441 13.2733 8.04202 13.2337 7.9504C13.1687 7.79472 13.1945 7.57632 13.3367 7.26608L8.5745 11.017V12.3666H10.6667L15.1041 8.88113C15.2191 8.7527 15.3934 8.5791 15.6272 8.36033C16.2544 7.77904 16.3966 7.57856 16.3966 7.28176C16.3966 7.05104 16.3708 6.93456 16.2891 6.93456V6.93568ZM17.3452 9.11969L16.9656 9.49825C16.7528 9.69985 16.3731 9.94849 16.1132 10.0549L16.0617 10.0773L16.0584 10.0829L16.0472 10.0941C16.0371 10.1019 16.0326 10.1031 16.0248 10.1064C15.9213 10.1463 15.8159 10.1811 15.7089 10.2106C15.4717 10.2802 15.2276 10.3233 14.9809 10.3394C14.8643 10.3475 14.7472 10.3373 14.6337 10.3091C14.535 10.2878 14.4479 10.2303 14.3896 10.1479C14.3343 10.065 14.3212 9.95484 14.3504 9.81745C14.3731 9.71977 14.4089 9.6256 14.4568 9.53745L10.8761 12.3666H15.6384L16.2073 11.7147C16.9891 10.8031 17.3452 10.1512 17.3452 9.59345V9.11969Z" fill="white"/>
</svg>