<svg xmlns="http://www.w3.org/2000/svg" width="19" height="21" viewBox="0 0 19 21" fill="none">
  <path d="M16.2631 10.876C16.1458 10.742 16.0221 10.6077 15.8921 10.473C15.9828 10.377 16.0708 10.2813 16.1561 10.186C17.7611 8.382 18.4391 6.572 17.8111 5.485C17.2091 4.442 15.4181 4.131 13.1751 4.567C12.9545 4.61033 12.7348 4.659 12.5161 4.713C12.4741 4.569 12.4298 4.42567 12.3831 4.283C11.6221 1.99 10.3931 0.499001 9.13714 0.500001C7.93314 0.500001 6.76914 1.897 6.02614 4.058C5.95281 4.27133 5.88514 4.486 5.82314 4.702C5.67714 4.666 5.53047 4.63267 5.38314 4.602C3.01714 4.117 1.11214 4.437 0.485142 5.526C-0.115858 6.569 0.512142 8.276 2.01314 9.998C2.16247 10.168 2.31581 10.3347 2.47314 10.498C2.28714 10.688 2.11214 10.879 1.94814 11.069C0.483142 12.767 -0.108858 14.445 0.491142 15.484C1.11114 16.558 2.98914 16.909 5.27614 16.459C5.46148 16.4223 5.64581 16.381 5.82914 16.335C5.89581 16.569 5.96948 16.8013 6.05014 17.032C6.79014 19.149 7.94714 20.5 9.14714 20.5C10.3871 20.5 11.6291 19.047 12.3821 16.841C12.4421 16.667 12.4971 16.486 12.5511 16.3C12.7878 16.3587 13.0261 16.4107 13.2661 16.456C15.4691 16.873 17.2181 16.546 17.8171 15.506C18.4361 14.431 17.7971 12.629 16.2631 10.876ZM1.22514 5.952C1.61114 5.282 3.16814 5.02 5.21114 5.44C5.34181 5.46667 5.47481 5.49667 5.61014 5.53C5.41044 6.41236 5.26946 7.30699 5.18814 8.208C4.4514 8.72607 3.74893 9.29125 3.08514 9.9C2.93914 9.74867 2.79681 9.59367 2.65814 9.435C1.37114 7.961 0.863142 6.581 1.22514 5.952ZM5.11214 11.68C4.60214 11.293 4.12714 10.897 3.69614 10.499C4.12614 10.103 4.60114 9.709 5.11114 9.323C5.09247 9.71567 5.08348 10.1087 5.08414 10.502C5.08414 10.8953 5.09347 11.288 5.11214 11.68ZM5.11214 15.62C4.24536 15.813 3.35046 15.8449 2.47214 15.714C2.23135 15.6952 1.99699 15.6272 1.78354 15.5141C1.57008 15.4011 1.38208 15.2456 1.23114 15.057C0.866142 14.427 1.34214 13.079 2.59514 11.627C2.75248 11.445 2.91514 11.2677 3.08314 11.095C3.74723 11.7075 4.4511 12.2754 5.19014 12.795C5.27227 13.7074 5.41458 14.6134 5.61614 15.507C5.44948 15.549 5.28114 15.587 5.11114 15.621L5.11214 15.62ZM12.2121 7.581C11.8768 7.36967 11.5375 7.16533 11.1941 6.968C10.8555 6.77333 10.5131 6.58567 10.1671 6.405C10.736 6.16475 11.3163 5.95283 11.9061 5.77C12.0385 6.36814 12.1407 6.97257 12.2121 7.581ZM6.83514 4.335C7.47114 2.485 8.41314 1.355 9.13914 1.355C9.91214 1.354 10.9161 2.573 11.5731 4.552C11.6158 4.68133 11.6558 4.81133 11.6931 4.942C10.8307 5.20929 9.98684 5.53333 9.16714 5.912C8.35016 5.52869 7.50825 5.20095 6.64714 4.931C6.70514 4.731 6.76781 4.53233 6.83514 4.335ZM6.43514 5.759C7.02223 5.94378 7.59963 6.15806 8.16514 6.401C7.46381 6.76233 6.78114 7.156 6.11714 7.582C6.19714 6.944 6.30414 6.333 6.43514 5.759ZM6.11814 13.419C6.44948 13.6317 6.78581 13.836 7.12714 14.032C7.47514 14.232 7.82748 14.424 8.18414 14.608C7.61457 14.8594 7.03247 15.0813 6.44014 15.273C6.30251 14.661 6.19505 14.0426 6.11814 13.42V13.419ZM11.5741 16.565C11.3081 17.412 10.8884 18.2029 10.3361 18.898C10.1998 19.0973 10.024 19.2665 9.81966 19.3951C9.61533 19.5238 9.38678 19.6092 9.14814 19.646C8.41914 19.646 7.49014 18.561 6.85814 16.75C6.78348 16.536 6.71481 16.32 6.65214 16.102C7.51734 15.8229 8.36261 15.4855 9.18214 15.092C10.0088 15.4737 10.8596 15.8008 11.7291 16.071C11.6811 16.237 11.6295 16.4017 11.5741 16.565ZM11.9361 15.241C11.3387 15.0544 10.7506 14.8388 10.1741 14.595C10.5135 14.417 10.8551 14.2287 11.1991 14.03C11.5525 13.826 11.8965 13.617 12.2311 13.403C12.1643 14.0203 12.0658 14.6338 11.9361 15.241ZM12.3831 10.498C12.3831 11.1053 12.3641 11.712 12.3261 12.318C11.8331 12.652 11.3131 12.978 10.7721 13.29C10.2321 13.601 9.69914 13.887 9.17514 14.146C8.62381 13.882 8.08314 13.5973 7.55314 13.292C7.02647 12.9887 6.51181 12.6657 6.00914 12.323C5.96248 11.7163 5.93914 11.109 5.93914 10.501C5.93914 9.89367 5.96181 9.28667 6.00714 8.68C7.0124 7.99368 8.06807 7.38428 9.16514 6.857C9.70914 7.12167 10.2435 7.40533 10.7681 7.708C11.2948 8.01067 11.8115 8.33033 12.3181 8.667C12.3615 9.27633 12.3831 9.88667 12.3831 10.498ZM13.3391 5.405C15.2611 5.032 16.7091 5.283 17.0721 5.912C17.4591 6.582 16.9051 8.06 15.5181 9.618C15.4415 9.704 15.3621 9.79033 15.2801 9.877C14.6046 9.26632 13.8883 8.70235 13.1361 8.189C13.0604 7.29795 12.9251 6.41298 12.7311 5.54C12.9378 5.48933 13.1405 5.44433 13.3391 5.405ZM13.2091 9.29C13.7167 9.66045 14.2047 10.057 14.6711 10.478C14.2069 10.9058 13.7205 11.309 13.2141 11.686C13.2295 11.29 13.2371 10.894 13.2371 10.498C13.2371 10.0953 13.2278 9.69267 13.2091 9.29ZM17.0781 15.079C16.7141 15.71 15.3101 15.973 13.4251 15.617C13.2091 15.5763 12.9878 15.5277 12.7611 15.471C12.9504 14.5867 13.0797 13.6907 13.1481 12.789C13.899 12.267 14.613 11.694 15.2851 11.074C15.4031 11.196 15.5151 11.3173 15.6211 11.438C16.2222 12.0916 16.6978 12.8502 17.0241 13.676C17.1286 13.8937 17.1873 14.1306 17.1966 14.3719C17.2059 14.6132 17.1655 14.8539 17.0781 15.079ZM8.25914 8.938C7.95326 9.11463 7.70661 9.37799 7.5504 9.69478C7.39418 10.0116 7.33541 10.3676 7.38151 10.7178C7.42761 11.068 7.57651 11.3966 7.80939 11.6622C8.04227 11.9278 8.34867 12.1183 8.68985 12.2098C9.03102 12.3012 9.39165 12.2895 9.72613 12.176C10.0606 12.0625 10.3539 11.8523 10.569 11.5721C10.7841 11.2919 10.9112 10.9543 10.9344 10.6018C10.9576 10.2493 10.8757 9.89793 10.6991 9.592C10.5819 9.38882 10.4258 9.21073 10.2397 9.0679C10.0536 8.92507 9.8412 8.8203 9.61462 8.75956C9.38803 8.69883 9.1517 8.68333 8.91913 8.71395C8.68655 8.74457 8.46229 8.8207 8.25914 8.938Z" fill="#F7F7F7"/>
</svg>