<svg xmlns="http://www.w3.org/2000/svg" width="22" height="17" viewBox="0 0 22 17" fill="none">
  <path d="M4.84369 0.240738C3.66037 0.240738 2.78578 1.2766 2.82541 2.3991C2.86227 3.47827 2.81343 4.87632 2.46138 6.0154C2.10842 7.15817 1.51215 7.88254 0.537109 7.97562V9.02439C1.51215 9.11747 2.10842 9.84184 2.46138 10.9846C2.81343 12.1246 2.86227 13.5217 2.82449 14.6009C2.78578 15.7234 3.66037 16.7593 4.84461 16.7593H16.9672C18.1505 16.7593 19.026 15.7234 18.9873 14.6009C18.9495 13.5217 18.9984 12.1246 19.3495 10.9846C19.7034 9.84184 20.2987 9.11747 21.2728 9.02439V7.97562C20.2978 7.88254 19.7034 7.15817 19.3495 6.0154C18.9984 4.87632 18.9495 3.47827 18.9873 2.3991C19.026 1.2766 18.1505 0.240738 16.9672 0.240738H4.84369ZM14.595 10.4086C14.595 11.955 13.4421 12.8932 11.528 12.8932H8.26923C8.22304 12.8933 8.17728 12.8843 8.13458 12.8667C8.09187 12.8492 8.05305 12.8233 8.02035 12.7907C7.98765 12.7581 7.9617 12.7193 7.944 12.6767C7.92629 12.634 7.91718 12.5883 7.91718 12.5421V4.45792C7.9173 4.41181 7.9265 4.36618 7.94426 4.32362C7.96202 4.28107 7.98799 4.24243 8.02068 4.20991C8.05337 4.17739 8.09214 4.15163 8.13479 4.13409C8.17744 4.11656 8.22312 4.1076 8.26923 4.10772H11.5086C13.1048 4.10772 14.1526 4.97125 14.1526 6.29925C14.1526 7.23006 13.4476 8.06502 12.55 8.21063V8.25947C13.772 8.3931 14.595 9.24004 14.595 10.4086ZM11.1722 5.221H9.31431V7.84568H10.8792C12.0892 7.84568 12.7555 7.35816 12.7555 6.48726C12.7555 5.67165 12.1823 5.221 11.1722 5.221ZM9.31431 8.88615V11.779H11.2404C12.5002 11.779 13.1665 11.2731 13.1665 10.3229C13.1665 9.37367 12.4818 8.88615 11.1593 8.88615H9.31431Z" fill="#F7F7F7"/>
</svg>