<svg xmlns="http://www.w3.org/2000/svg" width="21" height="13" viewBox="0 0 21 13" fill="none">
  <path d="M10.2728 0.5C7.60283 0.5 5.94283 1.83 5.27283 4.5C6.27283 3.17 7.44283 2.67 8.77283 3C9.53283 3.19 10.0828 3.74 10.6828 4.35C11.6628 5.35 12.7728 6.5 15.2728 6.5C17.9428 6.5 19.6028 5.17 20.2728 2.5C19.2728 3.83 18.1028 4.33 16.7728 4C16.0128 3.81 15.4728 3.26 14.8628 2.65C13.8828 1.65 12.7728 0.5 10.2728 0.5ZM5.27283 6.5C2.60283 6.5 0.942827 7.83 0.272827 10.5C1.27283 9.17 2.44283 8.67 3.77283 9C4.53283 9.19 5.07283 9.74 5.68283 10.35C6.66283 11.35 7.77283 12.5 10.2728 12.5C12.9428 12.5 14.6028 11.17 15.2728 8.5C14.2728 9.83 13.1028 10.33 11.7728 10C11.0128 9.81 10.4728 9.26 9.86283 8.65C8.88283 7.65 7.77283 6.5 5.27283 6.5Z" fill="#F7F7F7"/>
</svg>