<svg width="15" height="15" viewBox="0 0 15 15" fill="none" xmlns="http://www.w3.org/2000/svg">
<mask id="mask0_429_1211" style="mask-type:luminance" maskUnits="userSpaceOnUse" x="0" y="0" width="15" height="15">
<path d="M0 0.370392H14.2592V14.6296H0V0.370392Z" fill="white"/>
</mask>
<g mask="url(#mask0_429_1211)">
<path d="M13.92 0.370394H0.338657C0.294134 0.370394 0.250048 0.379173 0.208921 0.396229C0.167795 0.413286 0.130435 0.438284 0.0989804 0.469794C0.0675255 0.501304 0.0425926 0.538708 0.0256085 0.579864C0.00862438 0.62102 -7.75884e-05 0.665121 5.22134e-07 0.709644V14.291C-7.77449e-05 14.3355 0.00864381 14.3797 0.025665 14.4209C0.0426862 14.4621 0.0676722 14.4995 0.0991902 14.531C0.130708 14.5625 0.168138 14.5875 0.209333 14.6045C0.250528 14.6216 0.294678 14.6303 0.339251 14.6302H13.9206C13.9651 14.6303 14.0093 14.6216 14.0505 14.6045C14.0917 14.5875 14.1291 14.5625 14.1606 14.531C14.1921 14.4995 14.2171 14.4621 14.2341 14.4209C14.2512 14.3797 14.2599 14.3355 14.2598 14.291V0.70905C14.2598 0.664477 14.251 0.620342 14.2339 0.579177C14.2168 0.538012 14.1918 0.500626 14.1602 0.469163C14.1286 0.4377 14.0912 0.41278 14.0499 0.395831C14.0087 0.378882 13.9645 0.370238 13.92 0.370394ZM8.4878 7.99076H6.79036V13.2714H5.43217V7.99076H3.73473V6.82091H8.4878V7.99076ZM8.86804 12.9696V11.5585C8.86804 11.5585 9.63923 12.1396 10.5643 12.1396C11.4894 12.1396 11.4537 11.5348 11.4537 11.4516C11.4537 10.5741 8.8324 10.5741 8.8324 8.62886C8.8324 5.98377 12.6521 7.02767 12.6521 7.02767L12.6046 8.28485C12.6046 8.28485 11.9641 7.85767 11.2404 7.85767C10.5168 7.85767 10.2559 8.20227 10.2559 8.56944C10.2559 9.51828 12.901 9.42381 12.901 11.3334C12.901 14.2743 8.86804 12.9702 8.86804 12.9702" fill="white"/>
</g>
</svg>
