<svg xmlns="http://www.w3.org/2000/svg" width="25" height="5" viewBox="0 0 25 5" fill="none">
  <path d="M0.0512695 0.0319061V4.96006H0.897179V1.08518L4.01683 4.96198H9.31457V4.17518H5.89592V2.87418H8.64484V2.08738H5.89592V0.820809H9.31438V0.0334364H5.04982V0.820809H5.05021V4.92563L1.10856 0.0319061H0.0512695ZM16.3286 0.0338195V0.821001H18.056V4.96255H18.9015V0.821001H20.5939V0.0336276H16.3286V0.0338195ZM10.3369 0.0359233L14.3024 4.96446H15.4125L13.4297 2.50192L15.4096 0.0397493L14.302 0.041662L12.8752 1.81325L11.4443 0.0361145H10.3367L10.3369 0.0359233ZM23.7578 2.82846C23.6122 2.82846 23.4813 2.85294 23.3654 2.90383C23.2503 2.95414 23.1592 3.02492 23.0926 3.11578C23.0257 3.20684 22.9922 3.3132 22.9922 3.4341C22.9922 3.5814 23.0416 3.69885 23.1414 3.78742C23.2403 3.87618 23.3761 3.94218 23.5477 3.9856L23.7849 4.04529C23.8519 4.06152 23.9175 4.08288 23.9812 4.10918C24.0307 4.12872 24.0752 4.15882 24.1119 4.19737C24.1436 4.23444 24.1605 4.28193 24.1593 4.3307C24.1598 4.38666 24.1406 4.44102 24.1052 4.48431C24.0667 4.53077 24.0165 4.5661 23.9598 4.58665C23.8905 4.61223 23.8171 4.62469 23.7432 4.62338C23.6706 4.62438 23.5983 4.6126 23.5297 4.58857C23.4701 4.56706 23.417 4.53033 23.3759 4.48202C23.3355 4.43112 23.3119 4.36885 23.3086 4.30392H22.9373C22.9425 4.43974 22.9786 4.55566 23.0456 4.65055C23.1125 4.74543 23.2055 4.81755 23.3249 4.86671C23.4435 4.91645 23.5845 4.94132 23.7461 4.94132C23.9135 4.94132 24.0558 4.9153 24.1733 4.8648C24.2913 4.81315 24.3814 4.7418 24.4438 4.65093C24.5063 4.5593 24.5371 4.45428 24.5371 4.33376C24.5371 4.24462 24.5199 4.16695 24.4862 4.10096C24.4528 4.0353 24.4059 3.97747 24.3485 3.93128C24.2888 3.88346 24.2226 3.84437 24.1518 3.81516C24.0783 3.78395 24.0021 3.75931 23.9242 3.74151L23.7291 3.69369C23.686 3.68338 23.6434 3.67093 23.6015 3.65638C23.5614 3.64275 23.5231 3.62446 23.4873 3.60187C23.454 3.58196 23.4259 3.55459 23.405 3.5219C23.3842 3.48872 23.3737 3.45011 23.3748 3.41095C23.3749 3.36155 23.3909 3.31348 23.4203 3.27379C23.4502 3.23362 23.494 3.20187 23.55 3.17814C23.6144 3.15338 23.683 3.14142 23.752 3.14295C23.8639 3.14295 23.9552 3.16705 24.0256 3.21621C24.0596 3.23916 24.0879 3.26948 24.1086 3.30493C24.1292 3.34037 24.1416 3.38001 24.1448 3.4209H24.5082C24.5082 3.31073 24.4739 3.20329 24.4101 3.11349C24.3464 3.02434 24.2586 2.95414 24.1467 2.90383C24.035 2.85313 23.9056 2.82846 23.7578 2.82846ZM22.2278 2.856V4.30029C22.2272 4.3724 22.2159 4.43362 22.1941 4.48278C22.1745 4.52931 22.1406 4.56842 22.0973 4.5945C22.0556 4.61994 22.004 4.63276 21.9437 4.63276C21.8882 4.63276 21.8393 4.62185 21.7962 4.60024C21.7547 4.57989 21.72 4.54792 21.6964 4.50822C21.6714 4.46458 21.6585 4.41505 21.6591 4.36475H21.2836C21.2836 4.4912 21.3117 4.59679 21.3691 4.68154C21.4261 4.76647 21.5066 4.83305 21.6007 4.87322C21.7046 4.91769 21.8167 4.93985 21.9298 4.93826C22.0631 4.93826 22.1805 4.91262 22.2808 4.86174C22.3792 4.81288 22.4613 4.73653 22.5172 4.64194C22.5733 4.54648 22.6022 4.43285 22.6029 4.30009V2.856H22.2278ZM12.0256 2.86729L10.3338 4.9681H11.4443L12.58 3.55634L12.0256 2.86729ZM20.7841 4.49292C20.7221 4.49292 20.6693 4.51434 20.6253 4.55719C20.6041 4.57682 20.5872 4.60072 20.5759 4.62733C20.5645 4.65394 20.5589 4.68265 20.5595 4.71157C20.5588 4.74082 20.5643 4.76989 20.5756 4.79687C20.587 4.82384 20.6039 4.8481 20.6253 4.86805C20.6693 4.91109 20.7221 4.93232 20.7841 4.93232C20.8227 4.9326 20.8607 4.92228 20.8939 4.90248C20.9274 4.88328 20.9556 4.8559 20.9758 4.8229C20.9964 4.78943 21.0074 4.7509 21.0075 4.71157C21.0075 4.68255 21.0015 4.65386 20.9898 4.62728C20.9782 4.60071 20.9611 4.57685 20.9398 4.55719C20.9194 4.53663 20.8952 4.52035 20.8684 4.50931C20.8417 4.49827 20.813 4.4927 20.7841 4.49292Z" fill="#F7F7F7"/>
</svg>