<svg xmlns="http://www.w3.org/2000/svg" width="16" height="15" viewBox="0 0 16 15" fill="none">
  <path d="M5.46152 6.6104L5.78177 1.19559C5.78432 1.15322 5.80088 1.1129 5.82885 1.08097C5.85681 1.04904 5.8946 1.02731 5.93627 1.0192L11.1478 -0.0022111C11.18 -0.00853181 11.2133 -0.0064748 11.2444 0.00376256C11.2756 0.0139999 11.3036 0.0320741 11.3258 0.0562507C11.3479 0.0804274 11.3635 0.109895 11.371 0.141827C11.3785 0.173758 11.3777 0.207082 11.3686 0.2386L10.3941 3.61809C10.385 3.64955 10.3842 3.6828 10.3917 3.71467C10.3992 3.74653 10.4147 3.77595 10.4368 3.80011C10.4589 3.82427 10.4868 3.84236 10.5179 3.85265C10.5489 3.86294 10.5821 3.86509 10.6143 3.8589L12.1079 3.57118C12.1431 3.5643 12.1794 3.56743 12.2129 3.5802C12.2463 3.59296 12.2755 3.61486 12.2972 3.6434C12.3188 3.67194 12.332 3.70597 12.3353 3.74164C12.3385 3.7773 12.3317 3.81316 12.3156 3.84514L8.06854 12.3204L7.99161 12.4393C7.9748 12.4659 7.95155 12.4879 7.924 12.5032C7.89645 12.5185 7.8655 12.5267 7.83398 12.5269C7.72327 12.5269 7.61506 12.4318 7.64321 12.296L8.32812 8.98036C8.33484 8.94788 8.33301 8.91421 8.3228 8.88266C8.31259 8.8511 8.29436 8.82274 8.26989 8.80035C8.24542 8.77796 8.21555 8.76231 8.18322 8.75494C8.15088 8.74757 8.11718 8.74874 8.08543 8.75831L7.18911 9.0304C7.15738 9.04007 7.12368 9.04132 7.09131 9.03404C7.05895 9.02676 7.02903 9.0112 7.0045 8.98887C6.97996 8.96654 6.96165 8.93822 6.95136 8.90668C6.94107 8.87515 6.93915 8.84148 6.9458 8.80898L7.37738 6.69797C7.38392 6.66645 7.38241 6.63379 7.37299 6.60301C7.36356 6.57223 7.34652 6.54433 7.32345 6.52188C7.30038 6.49943 7.27202 6.48317 7.24099 6.47459C7.20997 6.46601 7.17728 6.46539 7.14595 6.47279L5.69483 6.80805C5.66587 6.81471 5.63576 6.81453 5.60688 6.80752C5.578 6.80052 5.55115 6.78689 5.52845 6.76772C5.50575 6.74854 5.48783 6.72434 5.4761 6.69703C5.46438 6.66973 5.45917 6.64007 5.4609 6.6104H5.46152ZM14.8288 1.65282L11.0896 2.33334L10.7494 3.51363L12.0485 3.26344C12.1492 3.24337 12.2536 3.25475 12.3476 3.29604C12.4416 3.33733 12.5206 3.40652 12.5739 3.49424C12.6192 3.56719 12.6449 3.65057 12.6486 3.73634C12.6523 3.82211 12.6339 3.90739 12.5952 3.984L8.34751 12.4599L8.33937 12.4756L8.32999 12.4899L8.25368 12.6088C8.20862 12.6795 8.14651 12.7377 8.07307 12.7782C7.99963 12.8186 7.9172 12.8399 7.83336 12.8402C7.75747 12.8396 7.68263 12.8224 7.61412 12.7898C7.5456 12.7571 7.48508 12.7099 7.4368 12.6513C7.38996 12.5933 7.35666 12.5256 7.33935 12.4531C7.32203 12.3806 7.32114 12.3051 7.33672 12.2322L7.98035 9.11671L7.2798 9.32938C7.18398 9.35824 7.08176 9.35808 6.98602 9.32892C6.89029 9.29975 6.80534 9.24289 6.74189 9.1655C6.6945 9.10778 6.66064 9.04018 6.64278 8.96766C6.62492 8.89515 6.62352 8.81955 6.63868 8.74643L7.03274 6.81994L5.76488 7.11266C5.67905 7.1322 5.58961 7.12903 5.50538 7.10347C5.42115 7.07792 5.34502 7.03086 5.28451 6.96693C5.23735 6.91703 5.20097 6.85796 5.17762 6.7934C5.15426 6.72883 5.14445 6.66016 5.14878 6.59164L5.3921 2.48221L0.738498 1.65032C0.666798 1.63738 0.592894 1.64517 0.525469 1.67278C0.458044 1.70038 0.399897 1.74666 0.35786 1.80617C0.315824 1.86568 0.291643 1.93594 0.288158 2.00872C0.284673 2.08149 0.30203 2.15375 0.338188 2.217L7.52187 14.8124C7.55542 14.8713 7.60405 14.9203 7.66275 14.9543C7.72146 14.9883 7.78815 15.0061 7.85598 15.0058C7.92382 15.0055 7.99037 14.9873 8.04882 14.9528C8.10727 14.9184 8.15552 14.8691 8.18863 14.8099L15.2316 2.21575C15.2669 2.15239 15.2835 2.0803 15.2794 2.00787C15.2753 1.93545 15.2507 1.86568 15.2085 1.80669C15.1663 1.7477 15.1082 1.70192 15.0409 1.67468C14.9737 1.64744 14.9001 1.63986 14.8288 1.65282Z" fill="white"/>
</svg>