<svg width="14" height="25" viewBox="0 0 14 25" fill="none" xmlns="http://www.w3.org/2000/svg">
<path d="M0 5.5H14V19.5H0V5.5ZM7.59375 16.4375V11.9375H6.28125V16.4062C6.28125 17.0625 6 17.25 5.59375 17.25C5.125 17.25 4.9375 16.9375 4.75 16.5625L3.65625 17.2188C3.96875 17.875 4.59375 18.4062 5.625 18.4062C6.8125 18.4062 7.59375 17.7812 7.59375 16.4375ZM10.7188 18.4062C11.9688 18.4062 12.9062 17.7812 12.9062 16.5938C12.9062 15.5 12.2812 15 11.1562 14.5312L10.8125 14.375C10.25 14.125 10 13.9688 10 13.5625C10 13.25 10.25 13 10.625 13C11.0312 13 11.25 13.1875 11.5 13.5625L12.5 12.9062C12.0938 12.1562 11.4688 11.875 10.6562 11.875C9.46875 11.875 8.71875 12.625 8.71875 13.5938C8.71875 14.6875 9.34375 15.1875 10.2812 15.5938L10.625 15.7188C11.2188 16 11.5938 16.1562 11.5938 16.5938C11.5938 16.9688 11.2188 17.25 10.6875 17.25C10.0312 17.25 9.6875 16.9062 9.40625 16.4688L8.3125 17.0625C8.71875 17.8438 9.5 18.4062 10.7188 18.4062Z" fill="white"/>
</svg>
