<svg xmlns="http://www.w3.org/2000/svg" width="16" height="17" viewBox="0 0 16 17" fill="none">
  <path d="M0 3.2525H16V13.7475H0V3.2525Z" fill="#6DA544"/>
  <path d="M1.7715 8.53803L7.965 4.44153L14.2395 8.46953L8.0465 12.549L1.7715 8.53803Z" fill="#FFDA44"/>
  <path d="M8.00549 10.986C9.38621 10.986 10.5055 9.87097 10.5055 8.4955C10.5055 7.12004 9.38621 6.005 8.00549 6.005C6.62478 6.005 5.50549 7.12004 5.50549 8.4955C5.50549 9.87097 6.62478 10.986 8.00549 10.986Z" fill="#F0F0F0"/>
  <path d="M6.75549 8.33948C6.33171 8.33904 5.9103 8.40259 5.50549 8.52798C5.51383 9.05606 5.6892 9.56793 6.00643 9.99018C6.32367 10.4124 6.76649 10.7234 7.27137 10.8784C7.77625 11.0334 8.31726 11.0246 8.8168 10.8531C9.31633 10.6816 9.74874 10.3564 10.052 9.92398C9.65663 9.42944 9.15503 9.03023 8.58437 8.75594C8.01372 8.48164 7.38865 8.33931 6.75549 8.33948Z" fill="#0052B4"/>
  <path d="M10.4595 8.9725C10.5741 8.36811 10.4618 7.74269 10.1441 7.21589C9.82649 6.68909 9.32576 6.29791 8.73775 6.11717C8.14974 5.93644 7.51574 5.97884 6.95703 6.23627C6.39833 6.49371 5.95416 6.94809 5.70949 7.5125C6.56013 7.33673 7.44137 7.37837 8.27165 7.63358C9.10193 7.88878 9.85442 8.34929 10.4595 8.9725Z" fill="#0052B4"/>
</svg>