<svg width="18" height="19" viewBox="0 0 18 19" fill="none" xmlns="http://www.w3.org/2000/svg">
<mask id="mask0_417_696" style="mask-type:luminance" maskUnits="userSpaceOnUse" x="1" y="4" width="16" height="11">
<path d="M1.23397 4.97009H16.766V14.0299H1.23397V4.97009Z" fill="white"/>
</mask>
<g mask="url(#mask0_417_696)">
<path d="M1.23397 13.3331H16.766V14.0299H1.23397V13.3331Z" fill="#F32837"/>
</g>
<mask id="mask1_417_696" style="mask-type:luminance" maskUnits="userSpaceOnUse" x="1" y="4" width="16" height="11">
<path d="M1.23397 4.97009H16.766V14.0299H1.23397V4.97009Z" fill="white"/>
</mask>
<g mask="url(#mask1_417_696)">
<path d="M1.23397 12.6362H16.766V13.3331H1.23397V12.6362Z" fill="#FFF5F5"/>
</g>
<mask id="mask2_417_696" style="mask-type:luminance" maskUnits="userSpaceOnUse" x="1" y="4" width="16" height="11">
<path d="M1.23397 4.97009H16.766V14.0299H1.23397V4.97009Z" fill="white"/>
</mask>
<g mask="url(#mask2_417_696)">
<path d="M1.23397 11.9398H16.766V12.6362H1.23397V11.9398Z" fill="#F32837"/>
</g>
<mask id="mask3_417_696" style="mask-type:luminance" maskUnits="userSpaceOnUse" x="1" y="4" width="16" height="11">
<path d="M1.23397 4.97009H16.766V14.0299H1.23397V4.97009Z" fill="white"/>
</mask>
<g mask="url(#mask3_417_696)">
<path d="M1.23397 11.243H16.766V11.9398H1.23397V11.243Z" fill="#FFF5F5"/>
</g>
<mask id="mask4_417_696" style="mask-type:luminance" maskUnits="userSpaceOnUse" x="1" y="4" width="16" height="11">
<path d="M1.23397 4.97009H16.766V14.0299H1.23397V4.97009Z" fill="white"/>
</mask>
<g mask="url(#mask4_417_696)">
<path d="M1.23397 10.5457H16.766V11.243H1.23397V10.5457Z" fill="#F32837"/>
</g>
<mask id="mask5_417_696" style="mask-type:luminance" maskUnits="userSpaceOnUse" x="1" y="4" width="16" height="11">
<path d="M1.23397 4.97009H16.766V14.0299H1.23397V4.97009Z" fill="white"/>
</mask>
<g mask="url(#mask5_417_696)">
<path d="M1.23397 9.84937H16.766V10.5457H1.23397V9.84937Z" fill="#FFF5F5"/>
</g>
<mask id="mask6_417_696" style="mask-type:luminance" maskUnits="userSpaceOnUse" x="1" y="4" width="16" height="11">
<path d="M1.23397 4.97009H16.766V14.0299H1.23397V4.97009Z" fill="white"/>
</mask>
<g mask="url(#mask6_417_696)">
<path d="M1.23397 9.15161H16.766V9.84936H1.23397V9.15161Z" fill="#F32837"/>
</g>
<mask id="mask7_417_696" style="mask-type:luminance" maskUnits="userSpaceOnUse" x="1" y="4" width="16" height="11">
<path d="M1.23397 4.97009H16.766V14.0299H1.23397V4.97009Z" fill="white"/>
</mask>
<g mask="url(#mask7_417_696)">
<path d="M1.23397 8.4552H16.766V9.1516H1.23397V8.4552Z" fill="#FFF5F5"/>
</g>
<mask id="mask8_417_696" style="mask-type:luminance" maskUnits="userSpaceOnUse" x="1" y="4" width="16" height="11">
<path d="M1.23397 4.97009H16.766V14.0299H1.23397V4.97009Z" fill="white"/>
</mask>
<g mask="url(#mask8_417_696)">
<path d="M1.23397 7.75836H16.766V8.45523H1.23397V7.75836Z" fill="#F32837"/>
</g>
<mask id="mask9_417_696" style="mask-type:luminance" maskUnits="userSpaceOnUse" x="1" y="4" width="16" height="11">
<path d="M1.23397 4.97009H16.766V14.0299H1.23397V4.97009Z" fill="white"/>
</mask>
<g mask="url(#mask9_417_696)">
<path d="M1.23397 7.0611H16.766V7.75837H1.23397V7.0611Z" fill="#FFF5F5"/>
</g>
<mask id="mask10_417_696" style="mask-type:luminance" maskUnits="userSpaceOnUse" x="1" y="4" width="16" height="11">
<path d="M1.23397 4.97009H16.766V14.0299H1.23397V4.97009Z" fill="white"/>
</mask>
<g mask="url(#mask10_417_696)">
<path d="M1.23397 6.3642H16.766V7.06107H1.23397V6.3642Z" fill="#F32837"/>
</g>
<mask id="mask11_417_696" style="mask-type:luminance" maskUnits="userSpaceOnUse" x="1" y="4" width="16" height="11">
<path d="M1.23397 4.97009H16.766V14.0299H1.23397V4.97009Z" fill="white"/>
</mask>
<g mask="url(#mask11_417_696)">
<path d="M1.23397 5.66742H16.766V6.36422H1.23397V5.66742Z" fill="#FFF5F5"/>
</g>
<mask id="mask12_417_696" style="mask-type:luminance" maskUnits="userSpaceOnUse" x="1" y="4" width="16" height="11">
<path d="M1.23397 4.97009H16.766V14.0299H1.23397V4.97009Z" fill="white"/>
</mask>
<g mask="url(#mask12_417_696)">
<path d="M1.23397 4.97009H16.766V5.66741H1.23397V4.97009Z" fill="#F32837"/>
</g>
<mask id="mask13_417_696" style="mask-type:luminance" maskUnits="userSpaceOnUse" x="1" y="4" width="16" height="11">
<path d="M1.23397 4.97009H16.766V14.0299H1.23397V4.97009Z" fill="white"/>
</mask>
<g mask="url(#mask13_417_696)">
<path d="M1.23397 4.97009H8.32714V9.84935H1.23397V4.97009Z" fill="#2A3560"/>
</g>
<mask id="mask14_417_696" style="mask-type:luminance" maskUnits="userSpaceOnUse" x="1" y="4" width="16" height="11">
<path d="M1.23397 4.97009H16.766V14.0299H1.23397V4.97009Z" fill="white"/>
</mask>
<g mask="url(#mask14_417_696)">
<path d="M1.87479 5.50781L1.93536 5.69265H2.12967L1.9724 5.80652L2.03209 5.99093L1.87479 5.87706L1.71754 5.99093L1.77901 5.80652L1.62171 5.69265H1.81422L1.87479 5.50781Z" fill="#FFF5F5"/>
</g>
<mask id="mask15_417_696" style="mask-type:luminance" maskUnits="userSpaceOnUse" x="1" y="4" width="16" height="11">
<path d="M1.23397 4.97009H16.766V14.0299H1.23397V4.97009Z" fill="white"/>
</mask>
<g mask="url(#mask15_417_696)">
<path d="M1.87479 6.32263L1.93536 6.50655H2.12967L1.9724 6.61997L2.03209 6.80523L1.87479 6.69096L1.71754 6.80523L1.77901 6.61997L1.62171 6.50655H1.81422L1.87479 6.32263Z" fill="#FFF5F5"/>
</g>
<mask id="mask16_417_696" style="mask-type:luminance" maskUnits="userSpaceOnUse" x="1" y="4" width="16" height="11">
<path d="M1.23397 4.97009H16.766V14.0299H1.23397V4.97009Z" fill="white"/>
</mask>
<g mask="url(#mask16_417_696)">
<path d="M1.87479 7.13696L1.93536 7.3209H2.12967L1.9724 7.4348L2.03209 7.61961L1.87479 7.50527L1.71754 7.61961L1.77901 7.4348L1.62171 7.3209H1.81422L1.87479 7.13696Z" fill="#FFF5F5"/>
</g>
<mask id="mask17_417_696" style="mask-type:luminance" maskUnits="userSpaceOnUse" x="1" y="4" width="16" height="11">
<path d="M1.23397 4.97009H16.766V14.0299H1.23397V4.97009Z" fill="white"/>
</mask>
<g mask="url(#mask17_417_696)">
<path d="M1.87479 7.95087L1.93536 8.13568H2.12967L1.9724 8.24955L2.03209 8.43351L1.87479 8.32009L1.71754 8.43351L1.77901 8.24955L1.62171 8.13568H1.81422L1.87479 7.95087Z" fill="#FFF5F5"/>
</g>
<mask id="mask18_417_696" style="mask-type:luminance" maskUnits="userSpaceOnUse" x="1" y="4" width="16" height="11">
<path d="M1.23397 4.97009H16.766V14.0299H1.23397V4.97009Z" fill="white"/>
</mask>
<g mask="url(#mask18_417_696)">
<path d="M1.87479 8.7652L1.93536 8.95049H2.12967L1.9724 9.06344L2.03209 9.24785L1.87479 9.13397L1.71754 9.24785L1.77901 9.06344L1.62171 8.95049H1.81422L1.87479 8.7652Z" fill="#FFF5F5"/>
</g>
<mask id="mask19_417_696" style="mask-type:luminance" maskUnits="userSpaceOnUse" x="1" y="4" width="16" height="11">
<path d="M1.23397 4.97009H16.766V14.0299H1.23397V4.97009Z" fill="white"/>
</mask>
<g mask="url(#mask19_417_696)">
<path d="M2.4424 5.93677L2.50025 6.12158H2.69544L2.53913 6.23593L2.59786 6.41982L2.4424 6.3064L2.28605 6.41982L2.34478 6.23593L2.1884 6.12158H2.38276L2.4424 5.93677Z" fill="#FFF5F5"/>
</g>
<mask id="mask20_417_696" style="mask-type:luminance" maskUnits="userSpaceOnUse" x="1" y="4" width="16" height="11">
<path d="M1.23397 4.97009H16.766V14.0299H1.23397V4.97009Z" fill="white"/>
</mask>
<g mask="url(#mask20_417_696)">
<path d="M2.4424 6.75153L2.50025 6.93546H2.69544L2.53913 7.04981L2.59786 7.2337L2.4424 7.12075L2.28605 7.2337L2.34478 7.04981L2.1884 6.93546H2.38276L2.4424 6.75153Z" fill="#FFF5F5"/>
</g>
<mask id="mask21_417_696" style="mask-type:luminance" maskUnits="userSpaceOnUse" x="1" y="4" width="16" height="11">
<path d="M1.23397 4.97009H16.766V14.0299H1.23397V4.97009Z" fill="white"/>
</mask>
<g mask="url(#mask21_417_696)">
<path d="M2.4424 7.56586L2.50025 7.75022H2.69544L2.53913 7.86409L2.59786 8.0485L2.4424 7.93463L2.28605 8.0485L2.34478 7.86409L2.1884 7.75022H2.38276L2.4424 7.56586Z" fill="#FFF5F5"/>
</g>
<mask id="mask22_417_696" style="mask-type:luminance" maskUnits="userSpaceOnUse" x="1" y="4" width="16" height="11">
<path d="M1.23397 4.97009H16.766V14.0299H1.23397V4.97009Z" fill="white"/>
</mask>
<g mask="url(#mask22_417_696)">
<path d="M2.4424 8.38062L2.50025 8.56455H2.69544L2.53913 8.67845L2.59786 8.86238L2.4424 8.74804L2.28605 8.86238L2.34478 8.67845L2.1884 8.56455H2.38276L2.4424 8.38062Z" fill="#FFF5F5"/>
</g>
<mask id="mask23_417_696" style="mask-type:luminance" maskUnits="userSpaceOnUse" x="1" y="4" width="16" height="11">
<path d="M1.23397 4.97009H16.766V14.0299H1.23397V4.97009Z" fill="white"/>
</mask>
<g mask="url(#mask23_417_696)">
<path d="M3.01543 5.50781L3.07596 5.69265H3.27027L3.11304 5.80652L3.17356 5.99093L3.01543 5.87706L2.85996 5.99093L2.9196 5.80652L2.76235 5.69265H2.95574L3.01543 5.50781Z" fill="#FFF5F5"/>
</g>
<mask id="mask24_417_696" style="mask-type:luminance" maskUnits="userSpaceOnUse" x="1" y="4" width="16" height="11">
<path d="M1.23397 4.97009H16.766V14.0299H1.23397V4.97009Z" fill="white"/>
</mask>
<g mask="url(#mask24_417_696)">
<path d="M3.01543 6.32263L3.07596 6.50655H3.27027L3.11304 6.61997L3.17356 6.80523L3.01543 6.69096L2.85996 6.80523L2.9196 6.61997L2.76235 6.50655H2.95574L3.01543 6.32263Z" fill="#FFF5F5"/>
</g>
<mask id="mask25_417_696" style="mask-type:luminance" maskUnits="userSpaceOnUse" x="1" y="4" width="16" height="11">
<path d="M1.23397 4.97009H16.766V14.0299H1.23397V4.97009Z" fill="white"/>
</mask>
<g mask="url(#mask25_417_696)">
<path d="M3.01543 7.13696L3.07596 7.3209H3.27027L3.11304 7.4348L3.17356 7.61961L3.01543 7.50527L2.85996 7.61961L2.9196 7.4348L2.76235 7.3209H2.95574L3.01543 7.13696Z" fill="#FFF5F5"/>
</g>
<mask id="mask26_417_696" style="mask-type:luminance" maskUnits="userSpaceOnUse" x="1" y="4" width="16" height="11">
<path d="M1.23397 4.97009H16.766V14.0299H1.23397V4.97009Z" fill="white"/>
</mask>
<g mask="url(#mask26_417_696)">
<path d="M3.01543 7.95087L3.07596 8.13568H3.27027L3.11304 8.24955L3.17356 8.43351L3.01543 8.32009L2.85996 8.43351L2.9196 8.24955L2.76235 8.13568H2.95574L3.01543 7.95087Z" fill="#FFF5F5"/>
</g>
<mask id="mask27_417_696" style="mask-type:luminance" maskUnits="userSpaceOnUse" x="1" y="4" width="16" height="11">
<path d="M1.23397 4.97009H16.766V14.0299H1.23397V4.97009Z" fill="white"/>
</mask>
<g mask="url(#mask27_417_696)">
<path d="M3.01543 8.7652L3.07596 8.95049H3.27027L3.11304 9.06344L3.17356 9.24785L3.01543 9.13397L2.85996 9.24785L2.9196 9.06344L2.76235 8.95049H2.95574L3.01543 8.7652Z" fill="#FFF5F5"/>
</g>
<mask id="mask28_417_696" style="mask-type:luminance" maskUnits="userSpaceOnUse" x="1" y="4" width="16" height="11">
<path d="M1.23397 4.97009H16.766V14.0299H1.23397V4.97009Z" fill="white"/>
</mask>
<g mask="url(#mask28_417_696)">
<path d="M3.58299 5.93677L3.64264 6.12158H3.83787L3.67972 6.23593L3.74029 6.41982L3.58299 6.3064L3.42664 6.41982L3.48721 6.23593L3.32903 6.12158H3.52334L3.58299 5.93677Z" fill="#FFF5F5"/>
</g>
<mask id="mask29_417_696" style="mask-type:luminance" maskUnits="userSpaceOnUse" x="1" y="4" width="16" height="11">
<path d="M1.23397 4.97009H16.766V14.0299H1.23397V4.97009Z" fill="white"/>
</mask>
<g mask="url(#mask29_417_696)">
<path d="M3.58299 6.75153L3.64264 6.93546H3.83787L3.67972 7.04981L3.74029 7.2337L3.58299 7.12075L3.42664 7.2337L3.48721 7.04981L3.32903 6.93546H3.52334L3.58299 6.75153Z" fill="#FFF5F5"/>
</g>
<mask id="mask30_417_696" style="mask-type:luminance" maskUnits="userSpaceOnUse" x="1" y="4" width="16" height="11">
<path d="M1.23397 4.97009H16.766V14.0299H1.23397V4.97009Z" fill="white"/>
</mask>
<g mask="url(#mask30_417_696)">
<path d="M3.58299 7.56586L3.64264 7.75022H3.83787L3.67972 7.86409L3.74029 8.0485L3.58299 7.93463L3.42664 8.0485L3.48721 7.86409L3.32903 7.75022H3.52334L3.58299 7.56586Z" fill="#FFF5F5"/>
</g>
<mask id="mask31_417_696" style="mask-type:luminance" maskUnits="userSpaceOnUse" x="1" y="4" width="16" height="11">
<path d="M1.23397 4.97009H16.766V14.0299H1.23397V4.97009Z" fill="white"/>
</mask>
<g mask="url(#mask31_417_696)">
<path d="M3.58299 8.38062L3.64264 8.56455H3.83787L3.67972 8.67845L3.74029 8.86238L3.58299 8.74804L3.42664 8.86238L3.48721 8.67845L3.32903 8.56455H3.52334L3.58299 8.38062Z" fill="#FFF5F5"/>
</g>
<mask id="mask32_417_696" style="mask-type:luminance" maskUnits="userSpaceOnUse" x="1" y="4" width="16" height="11">
<path d="M1.23397 4.97009H16.766V14.0299H1.23397V4.97009Z" fill="white"/>
</mask>
<g mask="url(#mask32_417_696)">
<path d="M4.15782 5.50781L4.21839 5.69265H4.4109L4.25362 5.80652L4.31599 5.99093L4.15782 5.87706L4.00059 5.99093L4.06024 5.80652L3.90474 5.69265H4.09817L4.15782 5.50781Z" fill="#FFF5F5"/>
</g>
<mask id="mask33_417_696" style="mask-type:luminance" maskUnits="userSpaceOnUse" x="1" y="4" width="16" height="11">
<path d="M1.23397 4.97009H16.766V14.0299H1.23397V4.97009Z" fill="white"/>
</mask>
<g mask="url(#mask33_417_696)">
<path d="M4.15782 6.32263L4.21839 6.50655H4.4109L4.25362 6.61997L4.31599 6.80523L4.15782 6.69096L4.00059 6.80523L4.06024 6.61997L3.90474 6.50655H4.09817L4.15782 6.32263Z" fill="#FFF5F5"/>
</g>
<mask id="mask34_417_696" style="mask-type:luminance" maskUnits="userSpaceOnUse" x="1" y="4" width="16" height="11">
<path d="M1.23397 4.97009H16.766V14.0299H1.23397V4.97009Z" fill="white"/>
</mask>
<g mask="url(#mask34_417_696)">
<path d="M4.15782 7.13696L4.21839 7.3209H4.4109L4.25362 7.4348L4.31599 7.61961L4.15782 7.50527L4.00059 7.61961L4.06024 7.4348L3.90474 7.3209H4.09817L4.15782 7.13696Z" fill="#FFF5F5"/>
</g>
<mask id="mask35_417_696" style="mask-type:luminance" maskUnits="userSpaceOnUse" x="1" y="4" width="16" height="11">
<path d="M1.23397 4.97009H16.766V14.0299H1.23397V4.97009Z" fill="white"/>
</mask>
<g mask="url(#mask35_417_696)">
<path d="M4.15782 7.95087L4.21839 8.13568H4.4109L4.25362 8.24955L4.31599 8.43351L4.15782 8.32009L4.00059 8.43351L4.06024 8.24955L3.90474 8.13568H4.09817L4.15782 7.95087Z" fill="#FFF5F5"/>
</g>
<mask id="mask36_417_696" style="mask-type:luminance" maskUnits="userSpaceOnUse" x="1" y="4" width="16" height="11">
<path d="M1.23397 4.97009H16.766V14.0299H1.23397V4.97009Z" fill="white"/>
</mask>
<g mask="url(#mask36_417_696)">
<path d="M4.15782 8.7652L4.21839 8.95049H4.4109L4.25362 9.06344L4.31599 9.24785L4.15782 9.13397L4.00059 9.24785L4.06024 9.06344L3.90474 8.95049H4.09817L4.15782 8.7652Z" fill="#FFF5F5"/>
</g>
<mask id="mask37_417_696" style="mask-type:luminance" maskUnits="userSpaceOnUse" x="1" y="4" width="16" height="11">
<path d="M1.23397 4.97009H16.766V14.0299H1.23397V4.97009Z" fill="white"/>
</mask>
<g mask="url(#mask37_417_696)">
<path d="M4.72545 5.93677L4.7851 6.12158H4.97847L4.82211 6.23593L4.88088 6.41982L4.72545 6.3064L4.56908 6.41982L4.6278 6.23593L4.47143 6.12158H4.66486L4.72545 5.93677Z" fill="#FFF5F5"/>
</g>
<mask id="mask38_417_696" style="mask-type:luminance" maskUnits="userSpaceOnUse" x="1" y="4" width="16" height="11">
<path d="M1.23397 4.97009H16.766V14.0299H1.23397V4.97009Z" fill="white"/>
</mask>
<g mask="url(#mask38_417_696)">
<path d="M4.72545 6.75153L4.7851 6.93546H4.97847L4.82211 7.04981L4.88088 7.2337L4.72545 7.12075L4.56908 7.2337L4.6278 7.04981L4.47143 6.93546H4.66486L4.72545 6.75153Z" fill="#FFF5F5"/>
</g>
<mask id="mask39_417_696" style="mask-type:luminance" maskUnits="userSpaceOnUse" x="1" y="4" width="16" height="11">
<path d="M1.23397 4.97009H16.766V14.0299H1.23397V4.97009Z" fill="white"/>
</mask>
<g mask="url(#mask39_417_696)">
<path d="M4.72545 7.56586L4.7851 7.75022H4.97847L4.82211 7.86409L4.88088 8.0485L4.72545 7.93463L4.56908 8.0485L4.6278 7.86409L4.47143 7.75022H4.66486L4.72545 7.56586Z" fill="#FFF5F5"/>
</g>
<mask id="mask40_417_696" style="mask-type:luminance" maskUnits="userSpaceOnUse" x="1" y="4" width="16" height="11">
<path d="M1.23397 4.97009H16.766V14.0299H1.23397V4.97009Z" fill="white"/>
</mask>
<g mask="url(#mask40_417_696)">
<path d="M4.72545 8.38062L4.7851 8.56455H4.97847L4.82211 8.67845L4.88088 8.86238L4.72545 8.74804L4.56908 8.86238L4.6278 8.67845L4.47143 8.56455H4.66486L4.72545 8.38062Z" fill="#FFF5F5"/>
</g>
<mask id="mask41_417_696" style="mask-type:luminance" maskUnits="userSpaceOnUse" x="1" y="4" width="16" height="11">
<path d="M1.23397 4.97009H16.766V14.0299H1.23397V4.97009Z" fill="white"/>
</mask>
<g mask="url(#mask41_417_696)">
<path d="M5.29841 5.50781L5.35898 5.69265H5.55242L5.39606 5.80652L5.45659 5.99093L5.29841 5.87706L5.14298 5.99093L5.20175 5.80652L5.04538 5.69265H5.23877L5.29841 5.50781Z" fill="#FFF5F5"/>
</g>
<mask id="mask42_417_696" style="mask-type:luminance" maskUnits="userSpaceOnUse" x="1" y="4" width="16" height="11">
<path d="M1.23397 4.97009H16.766V14.0299H1.23397V4.97009Z" fill="white"/>
</mask>
<g mask="url(#mask42_417_696)">
<path d="M5.29841 6.32263L5.35898 6.50655H5.55242L5.39606 6.61997L5.45659 6.80523L5.29841 6.69096L5.14298 6.80523L5.20175 6.61997L5.04538 6.50655H5.23877L5.29841 6.32263Z" fill="#FFF5F5"/>
</g>
<mask id="mask43_417_696" style="mask-type:luminance" maskUnits="userSpaceOnUse" x="1" y="4" width="16" height="11">
<path d="M1.23397 4.97009H16.766V14.0299H1.23397V4.97009Z" fill="white"/>
</mask>
<g mask="url(#mask43_417_696)">
<path d="M5.29841 7.13696L5.35898 7.3209H5.55242L5.39606 7.4348L5.45659 7.61961L5.29841 7.50527L5.14298 7.61961L5.20175 7.4348L5.04538 7.3209H5.23877L5.29841 7.13696Z" fill="#FFF5F5"/>
</g>
<mask id="mask44_417_696" style="mask-type:luminance" maskUnits="userSpaceOnUse" x="1" y="4" width="16" height="11">
<path d="M1.23397 4.97009H16.766V14.0299H1.23397V4.97009Z" fill="white"/>
</mask>
<g mask="url(#mask44_417_696)">
<path d="M5.29841 7.95087L5.35898 8.13568H5.55242L5.39606 8.24955L5.45659 8.43351L5.29841 8.32009L5.14298 8.43351L5.20175 8.24955L5.04538 8.13568H5.23877L5.29841 7.95087Z" fill="#FFF5F5"/>
</g>
<mask id="mask45_417_696" style="mask-type:luminance" maskUnits="userSpaceOnUse" x="1" y="4" width="16" height="11">
<path d="M1.23397 4.97009H16.766V14.0299H1.23397V4.97009Z" fill="white"/>
</mask>
<g mask="url(#mask45_417_696)">
<path d="M5.29841 8.7652L5.35898 8.95049H5.55242L5.39606 9.06344L5.45659 9.24785L5.29841 9.13397L5.14298 9.24785L5.20175 9.06344L5.04538 8.95049H5.23877L5.29841 8.7652Z" fill="#FFF5F5"/>
</g>
<mask id="mask46_417_696" style="mask-type:luminance" maskUnits="userSpaceOnUse" x="1" y="4" width="16" height="11">
<path d="M1.23397 4.97009H16.766V14.0299H1.23397V4.97009Z" fill="white"/>
</mask>
<g mask="url(#mask46_417_696)">
<path d="M5.86605 5.93677L5.9257 6.12158H6.12093L5.96363 6.23593L6.02332 6.41982L5.86605 6.3064L5.70967 6.41982L5.77024 6.23593L5.61297 6.12158H5.80732L5.86605 5.93677Z" fill="#FFF5F5"/>
</g>
<mask id="mask47_417_696" style="mask-type:luminance" maskUnits="userSpaceOnUse" x="1" y="4" width="16" height="11">
<path d="M1.23397 4.97009H16.766V14.0299H1.23397V4.97009Z" fill="white"/>
</mask>
<g mask="url(#mask47_417_696)">
<path d="M5.86605 6.75153L5.9257 6.93546H6.12093L5.96363 7.04981L6.02332 7.2337L5.86605 7.12075L5.70967 7.2337L5.77024 7.04981L5.61297 6.93546H5.80732L5.86605 6.75153Z" fill="#FFF5F5"/>
</g>
<mask id="mask48_417_696" style="mask-type:luminance" maskUnits="userSpaceOnUse" x="1" y="4" width="16" height="11">
<path d="M1.23397 4.97009H16.766V14.0299H1.23397V4.97009Z" fill="white"/>
</mask>
<g mask="url(#mask48_417_696)">
<path d="M5.86605 7.56586L5.9257 7.75022H6.12093L5.96363 7.86409L6.02332 8.0485L5.86605 7.93463L5.70967 8.0485L5.77024 7.86409L5.61297 7.75022H5.80732L5.86605 7.56586Z" fill="#FFF5F5"/>
</g>
<mask id="mask49_417_696" style="mask-type:luminance" maskUnits="userSpaceOnUse" x="1" y="4" width="16" height="11">
<path d="M1.23397 4.97009H16.766V14.0299H1.23397V4.97009Z" fill="white"/>
</mask>
<g mask="url(#mask49_417_696)">
<path d="M5.86605 8.38062L5.9257 8.56455H6.12093L5.96363 8.67845L6.02332 8.86238L5.86605 8.74804L5.70967 8.86238L5.77024 8.67845L5.61297 8.56455H5.80732L5.86605 8.38062Z" fill="#FFF5F5"/>
</g>
<mask id="mask50_417_696" style="mask-type:luminance" maskUnits="userSpaceOnUse" x="1" y="4" width="16" height="11">
<path d="M1.23397 4.97009H16.766V14.0299H1.23397V4.97009Z" fill="white"/>
</mask>
<g mask="url(#mask50_417_696)">
<path d="M6.44088 5.50781L6.50145 5.69265H6.69484L6.53846 5.80652L6.59723 5.99093L6.44088 5.87706L6.28542 5.99093L6.34415 5.80652L6.1878 5.69265H6.38121L6.44088 5.50781Z" fill="#FFF5F5"/>
</g>
<mask id="mask51_417_696" style="mask-type:luminance" maskUnits="userSpaceOnUse" x="1" y="4" width="16" height="11">
<path d="M1.23397 4.97009H16.766V14.0299H1.23397V4.97009Z" fill="white"/>
</mask>
<g mask="url(#mask51_417_696)">
<path d="M6.44088 6.32263L6.50145 6.50655H6.69484L6.53846 6.61997L6.59723 6.80523L6.44088 6.69096L6.28542 6.80523L6.34415 6.61997L6.1878 6.50655H6.38121L6.44088 6.32263Z" fill="#FFF5F5"/>
</g>
<mask id="mask52_417_696" style="mask-type:luminance" maskUnits="userSpaceOnUse" x="1" y="4" width="16" height="11">
<path d="M1.23397 4.97009H16.766V14.0299H1.23397V4.97009Z" fill="white"/>
</mask>
<g mask="url(#mask52_417_696)">
<path d="M6.44088 7.13696L6.50145 7.3209H6.69484L6.53846 7.4348L6.59723 7.61961L6.44088 7.50527L6.28542 7.61961L6.34415 7.4348L6.1878 7.3209H6.38121L6.44088 7.13696Z" fill="#FFF5F5"/>
</g>
<mask id="mask53_417_696" style="mask-type:luminance" maskUnits="userSpaceOnUse" x="1" y="4" width="16" height="11">
<path d="M1.23397 4.97009H16.766V14.0299H1.23397V4.97009Z" fill="white"/>
</mask>
<g mask="url(#mask53_417_696)">
<path d="M6.44088 7.95087L6.50145 8.13568H6.69484L6.53846 8.24955L6.59723 8.43351L6.44088 8.32009L6.28542 8.43351L6.34415 8.24955L6.1878 8.13568H6.38121L6.44088 7.95087Z" fill="#FFF5F5"/>
</g>
<mask id="mask54_417_696" style="mask-type:luminance" maskUnits="userSpaceOnUse" x="1" y="4" width="16" height="11">
<path d="M1.23397 4.97009H16.766V14.0299H1.23397V4.97009Z" fill="white"/>
</mask>
<g mask="url(#mask54_417_696)">
<path d="M6.44088 8.7652L6.50145 8.95049H6.69484L6.53846 9.06344L6.59723 9.24785L6.44088 9.13397L6.28542 9.24785L6.34415 9.06344L6.1878 8.95049H6.38121L6.44088 8.7652Z" fill="#FFF5F5"/>
</g>
<mask id="mask55_417_696" style="mask-type:luminance" maskUnits="userSpaceOnUse" x="1" y="4" width="16" height="11">
<path d="M1.23397 4.97009H16.766V14.0299H1.23397V4.97009Z" fill="white"/>
</mask>
<g mask="url(#mask55_417_696)">
<path d="M7.00848 5.93677L7.06721 6.12158H7.26152L7.10606 6.23593L7.16391 6.41982L7.00848 6.3064L6.85031 6.41982L6.91083 6.23593L6.7554 6.12158H6.94791L7.00848 5.93677Z" fill="#FFF5F5"/>
</g>
<mask id="mask56_417_696" style="mask-type:luminance" maskUnits="userSpaceOnUse" x="1" y="4" width="16" height="11">
<path d="M1.23397 4.97009H16.766V14.0299H1.23397V4.97009Z" fill="white"/>
</mask>
<g mask="url(#mask56_417_696)">
<path d="M7.00848 6.75153L7.06721 6.93546H7.26152L7.10606 7.04981L7.16391 7.2337L7.00848 7.12075L6.85031 7.2337L6.91083 7.04981L6.7554 6.93546H6.94791L7.00848 6.75153Z" fill="#FFF5F5"/>
</g>
<mask id="mask57_417_696" style="mask-type:luminance" maskUnits="userSpaceOnUse" x="1" y="4" width="16" height="11">
<path d="M1.23397 4.97009H16.766V14.0299H1.23397V4.97009Z" fill="white"/>
</mask>
<g mask="url(#mask57_417_696)">
<path d="M7.00848 7.56586L7.06721 7.75022H7.26152L7.10606 7.86409L7.16391 8.0485L7.00848 7.93463L6.85031 8.0485L6.91083 7.86409L6.7554 7.75022H6.94791L7.00848 7.56586Z" fill="#FFF5F5"/>
</g>
<mask id="mask58_417_696" style="mask-type:luminance" maskUnits="userSpaceOnUse" x="1" y="4" width="16" height="11">
<path d="M1.23397 4.97009H16.766V14.0299H1.23397V4.97009Z" fill="white"/>
</mask>
<g mask="url(#mask58_417_696)">
<path d="M7.00848 8.38062L7.06721 8.56455H7.26152L7.10606 8.67845L7.16391 8.86238L7.00848 8.74804L6.85031 8.86238L6.91083 8.67845L6.7554 8.56455H6.94791L7.00848 8.38062Z" fill="#FFF5F5"/>
</g>
<mask id="mask59_417_696" style="mask-type:luminance" maskUnits="userSpaceOnUse" x="1" y="4" width="16" height="11">
<path d="M1.23397 4.97009H16.766V14.0299H1.23397V4.97009Z" fill="white"/>
</mask>
<g mask="url(#mask59_417_696)">
<path d="M7.58147 5.50781L7.64296 5.69265H7.83547L7.67909 5.80652L7.73962 5.99093L7.58147 5.87706L7.42601 5.99093L7.48478 5.80652L7.32843 5.69265H7.52182L7.58147 5.50781Z" fill="#FFF5F5"/>
</g>
<mask id="mask60_417_696" style="mask-type:luminance" maskUnits="userSpaceOnUse" x="1" y="4" width="16" height="11">
<path d="M1.23397 4.97009H16.766V14.0299H1.23397V4.97009Z" fill="white"/>
</mask>
<g mask="url(#mask60_417_696)">
<path d="M7.58147 6.32263L7.64296 6.50655H7.83547L7.67909 6.61997L7.73962 6.80523L7.58147 6.69096L7.42601 6.80523L7.48478 6.61997L7.32843 6.50655H7.52182L7.58147 6.32263Z" fill="#FFF5F5"/>
</g>
<mask id="mask61_417_696" style="mask-type:luminance" maskUnits="userSpaceOnUse" x="1" y="4" width="16" height="11">
<path d="M1.23397 4.97009H16.766V14.0299H1.23397V4.97009Z" fill="white"/>
</mask>
<g mask="url(#mask61_417_696)">
<path d="M7.58147 7.13696L7.64296 7.3209H7.83547L7.67909 7.4348L7.73962 7.61961L7.58147 7.50527L7.42601 7.61961L7.48478 7.4348L7.32843 7.3209H7.52182L7.58147 7.13696Z" fill="#FFF5F5"/>
</g>
<mask id="mask62_417_696" style="mask-type:luminance" maskUnits="userSpaceOnUse" x="1" y="4" width="16" height="11">
<path d="M1.23397 4.97009H16.766V14.0299H1.23397V4.97009Z" fill="white"/>
</mask>
<g mask="url(#mask62_417_696)">
<path d="M7.58147 7.95087L7.64296 8.13568H7.83547L7.67909 8.24955L7.73962 8.43351L7.58147 8.32009L7.42601 8.43351L7.48478 8.24955L7.32843 8.13568H7.52182L7.58147 7.95087Z" fill="#FFF5F5"/>
</g>
<mask id="mask63_417_696" style="mask-type:luminance" maskUnits="userSpaceOnUse" x="1" y="4" width="16" height="11">
<path d="M1.23397 4.97009H16.766V14.0299H1.23397V4.97009Z" fill="white"/>
</mask>
<g mask="url(#mask63_417_696)">
<path d="M7.58147 8.7652L7.64296 8.95049H7.83547L7.67909 9.06344L7.73962 9.24785L7.58147 9.13397L7.42601 9.24785L7.48478 9.06344L7.32843 8.95049H7.52182L7.58147 8.7652Z" fill="#FFF5F5"/>
</g>
</svg>
