<svg xmlns="http://www.w3.org/2000/svg" width="18" height="18" viewBox="0 0 18 18" fill="none">
  <path d="M11.8948 6.03162C13.1511 6.03162 14.3559 6.53068 15.2443 7.41901C16.1326 8.30734 16.6316 9.51217 16.6316 10.7685V16.2948H13.4737V10.7685C13.4737 10.3497 13.3074 9.94808 13.0113 9.65197C12.7152 9.35586 12.3136 9.18951 11.8948 9.18951C11.476 9.18951 11.0744 9.35586 10.7783 9.65197C10.4822 9.94808 10.3159 10.3497 10.3159 10.7685V16.2948H7.15796V10.7685C7.15796 9.51217 7.65702 8.30734 8.54535 7.41901C9.43368 6.53068 10.6385 6.03162 11.8948 6.03162Z" stroke="#071E3D" stroke-width="1.5" stroke-linecap="round" stroke-linejoin="round"/>
  <path d="M4.15789 6.82109H1V16.2948H4.15789V6.82109Z" stroke="#071E3D" stroke-width="1.5" stroke-linecap="round" stroke-linejoin="round"/>
  <path d="M2.57895 4.03161C3.45098 4.03161 4.15789 3.32469 4.15789 2.45267C4.15789 1.58064 3.45098 0.873718 2.57895 0.873718C1.70692 0.873718 1 1.58064 1 2.45267C1 3.32469 1.70692 4.03161 2.57895 4.03161Z" stroke="#071E3D" stroke-width="1.5" stroke-linecap="round" stroke-linejoin="round"/>
</svg>