<svg xmlns="http://www.w3.org/2000/svg" width="23" height="21" viewBox="0 0 23 21" fill="none">
  <path d="M15.5 6.9978C17.0913 6.9978 18.6174 7.62994 19.7426 8.75516C20.8679 9.88038 21.5 11.4065 21.5 12.9978V19.9978H17.5V12.9978C17.5 12.4674 17.2893 11.9587 16.9142 11.5836C16.5391 11.2085 16.0304 10.9978 15.5 10.9978C14.9696 10.9978 14.4609 11.2085 14.0858 11.5836C13.7107 11.9587 13.5 12.4674 13.5 12.9978V19.9978H9.5V12.9978C9.5 11.4065 10.1321 9.88038 11.2574 8.75516C12.3826 7.62994 13.9087 6.9978 15.5 6.9978Z" stroke="#F8F9FA" stroke-width="1.5" stroke-linecap="round" stroke-linejoin="round"/>
  <path d="M5.5 7.9978H1.5V19.9978H5.5V7.9978Z" stroke="#F8F9FA" stroke-width="1.5" stroke-linecap="round" stroke-linejoin="round"/>
  <path d="M3.5 4.9978C4.60457 4.9978 5.5 4.10237 5.5 2.9978C5.5 1.89323 4.60457 0.997803 3.5 0.997803C2.39543 0.997803 1.5 1.89323 1.5 2.9978C1.5 4.10237 2.39543 4.9978 3.5 4.9978Z" stroke="#F8F9FA" stroke-width="1.5" stroke-linecap="round" stroke-linejoin="round"/>
</svg>