<svg xmlns="http://www.w3.org/2000/svg" width="18" height="19" viewBox="0 0 18 19" fill="none">
  <path d="M6.74359 15.4482C2.64103 16.661 2.64103 13.427 1 13.0228M12.4872 17.8737V14.7449C12.518 14.3593 12.4651 13.9718 12.3321 13.6079C12.1991 13.2441 11.9891 12.9123 11.7159 12.6347C14.2923 12.3517 17 11.3896 17 6.97524C16.9998 5.84645 16.5591 4.76094 15.7692 3.9434C16.1433 2.95583 16.1168 1.86424 15.6954 0.89538C15.6954 0.89538 14.7272 0.612408 12.4872 2.09195C10.6066 1.58973 8.6242 1.58973 6.74359 2.09195C4.50359 0.612408 3.53538 0.89538 3.53538 0.89538C3.11395 1.86424 3.0875 2.95583 3.46154 3.9434C2.66575 4.76701 2.22463 5.86232 2.23077 6.9995C2.23077 11.3815 4.93846 12.3436 7.51487 12.6589C7.24492 12.9338 7.03673 13.2616 6.90384 13.621C6.77096 13.9804 6.71636 14.3633 6.74359 14.7449V17.8737" stroke="#F8F9FA" stroke-width="1.5" stroke-linecap="round" stroke-linejoin="round"/>
</svg>