<svg xmlns="http://www.w3.org/2000/svg" width="28" height="13" viewBox="0 0 28 13" fill="none">
  <path d="M18.3199 0.633423L18.2359 1.07134C18.106 1.90127 18.153 2.13871 18.5092 2.44671L18.853 2.73119L18.4969 4.31935C18.284 5.26688 18.0231 6.06096 17.8573 6.32192C17.7151 6.54704 17.5493 6.87856 17.5135 7.05664C17.4541 7.26944 17.2525 7.48336 16.9445 7.67264C16.6724 7.8272 16.1381 8.24161 15.7596 8.57425C15.4572 8.84641 15.2488 9.01329 15.1357 9.08497L14.7661 9.37729C14.6711 9.51824 14.5996 9.67371 14.5544 9.83761C14.5287 9.95745 14.5432 10.037 14.5813 10.0952C14.6187 10.1512 14.6814 10.1912 14.7695 10.2151C14.873 10.2386 14.9794 10.2472 15.0853 10.2408C15.3251 10.2244 15.5624 10.1824 15.7932 10.1154C15.8716 10.0941 15.9332 10.0739 15.9869 10.056C16.0698 9.95409 16.2613 9.76145 16.6007 9.42657C17.5012 8.53841 17.845 8.05233 17.49 8.18337C17.3589 8.23041 17.4183 8.11169 17.6434 7.87424C18.1183 7.41168 18.3904 6.7128 18.9594 4.52095C19.4097 2.79055 19.4097 2.76591 19.7412 2.76591C19.8969 2.76591 20.337 2.79279 20.337 2.79279V0.633423H19.3268H18.3199ZM22.6196 4.17823C22.5479 4.17823 22.4292 4.28575 22.3586 4.40447C22.2287 4.61727 22.3821 4.74719 24.3377 5.968C25.4991 6.70384 26.4354 7.33104 26.4119 7.3792C26.3884 7.41392 25.4398 8.03104 24.3029 8.74225C22.2399 10.0213 22.2287 10.0336 22.418 10.2946C22.6554 10.6026 22.418 10.709 25.0959 9.03793L27.0402 7.7936V6.85728L24.8708 5.51776C23.6981 4.78304 22.6789 4.19055 22.6196 4.17823ZM4.60433 4.30927C4.54497 4.30927 3.52577 4.91408 2.35312 5.63648L0.160156 6.976V7.91232L2.3408 9.27537C3.55041 10.0213 4.56961 10.6384 4.61665 10.6384C4.66369 10.6384 4.75889 10.5309 4.85409 10.401C4.99633 10.1759 4.87649 10.0807 2.87392 8.81281C0.966559 7.61552 0.764958 7.44976 0.955359 7.31984C1.07408 7.23696 1.97456 6.6792 2.94672 6.07552C5.16321 4.71248 5.04449 4.80656 4.86641 4.52207C4.79585 4.40447 4.67601 4.29807 4.60545 4.30927H4.60433ZM14.3304 4.33503C14.0034 4.33279 13.3 4.8312 11.1944 6.5504C11.1037 6.76656 11.0959 6.91552 11.1373 7.01184C11.1649 7.0768 11.2131 7.12534 11.2818 7.15744C11.349 7.19104 11.4363 7.2112 11.5327 7.21904C11.7242 7.23584 11.9504 7.2056 12.133 7.16976L12.2562 7.14176C12.2988 7.08564 12.3541 7.04036 12.4175 7.0096C12.5474 6.93792 13.0928 6.44064 13.6383 5.90752C14.5981 4.93536 14.8232 4.49631 14.4324 4.35407C14.4007 4.34001 14.3651 4.3335 14.3304 4.33503ZM16.79 5.0104C16.5021 5.01824 15.9836 5.352 15.0954 6.06096C14.6496 6.42272 14.3674 6.6176 14.2162 6.65792L13.6293 7.1216C13.4087 7.5248 13.3762 7.77456 13.4344 7.91232C13.449 7.94631 13.4702 7.97707 13.4967 8.00282C13.5232 8.02858 13.5546 8.04883 13.589 8.06241C13.6742 8.09745 13.7657 8.11461 13.8578 8.1128C14.0776 8.11019 14.2961 8.07817 14.5074 8.0176C14.6173 7.98742 14.726 7.95304 14.8333 7.91456L14.8658 7.90112L14.9252 7.86976C15.0372 7.72528 15.2948 7.45312 15.6173 7.13952C16.6365 6.15616 17.1573 5.45728 17.0509 5.19632C17.0028 5.06976 16.9199 5.00592 16.79 5.0104ZM14.0751 6.22C13.9922 6.22896 13.8063 6.37232 13.4714 6.66576C12.9876 7.0936 12.46 7.34 12.2775 7.23024L12.1498 7.25712C11.9639 7.29408 11.732 7.32432 11.5248 7.30752C11.4272 7.30182 11.3314 7.27788 11.2426 7.23696C11.1589 7.19836 11.092 7.13071 11.0544 7.04656C11.013 6.94576 11.013 6.82032 11.06 6.66016L10.332 7.25824L8.6845 8.62129V10.8311L14.0829 6.5784C14.0817 6.53183 14.0877 6.48535 14.1008 6.44064C14.1423 6.29056 14.14 6.2144 14.0751 6.22112V6.22ZM16.398 6.93568C16.3162 6.93568 16.1796 7.05104 15.9612 7.28288C15.6644 7.59984 15.1973 7.90672 14.9498 7.96944L14.9117 7.9896L14.7885 8.03664C14.7206 8.05979 14.6355 8.08518 14.5332 8.1128C14.3316 8.16768 14.0807 8.21809 13.8567 8.21249C13.751 8.21329 13.6462 8.19272 13.5487 8.15201C13.4562 8.11441 13.3822 8.04202 13.3426 7.9504C13.2776 7.79472 13.3034 7.57632 13.4456 7.26608L8.68338 11.017V12.3666H10.7755L15.213 8.88113C15.328 8.7527 15.5023 8.5791 15.736 8.36033C16.3632 7.77904 16.5055 7.57856 16.5055 7.28176C16.5055 7.05104 16.4797 6.93456 16.398 6.93456V6.93568ZM17.4541 9.11969L17.0744 9.49825C16.8616 9.69985 16.482 9.94849 16.2221 10.0549L16.1706 10.0773L16.1672 10.0829L16.156 10.0941C16.146 10.1019 16.1415 10.1031 16.1336 10.1064C16.0301 10.1463 15.9247 10.1811 15.8178 10.2106C15.5806 10.2802 15.3365 10.3233 15.0898 10.3394C14.9732 10.3475 14.856 10.3373 14.7426 10.3091C14.6439 10.2878 14.5568 10.2303 14.4984 10.1479C14.4432 10.065 14.4301 9.95484 14.4592 9.81745C14.482 9.71977 14.5178 9.6256 14.5656 9.53745L10.985 12.3666H15.7472L16.3162 11.7147C17.098 10.8031 17.4541 10.1512 17.4541 9.59345V9.11969Z" fill="#212529"/>
</svg>