<svg xmlns="http://www.w3.org/2000/svg" width="25" height="6" viewBox="0 0 25 6" fill="none">
  <path d="M0.160217 0.531921V5.46008H1.00613V1.5852L4.12578 5.46199H9.42352V4.67519H6.00487V3.37419H8.75379V2.58739H6.00487V1.32082H9.42333V0.533452H5.15877V1.32082H5.15915V5.42565L1.21751 0.531921H0.160217ZM16.4376 0.533835V1.32102H18.165V5.46257H19.0105V1.32102H20.7029V0.533643H16.4376V0.533835ZM10.4458 0.535939L14.4114 5.46448H15.5214L13.5387 3.00193L15.5186 0.539765L14.411 0.541677L12.9841 2.31327L11.5532 0.53613H10.4456L10.4458 0.535939ZM23.8667 3.32847C23.7211 3.32847 23.5903 3.35296 23.4744 3.40384C23.3592 3.45415 23.2682 3.52493 23.2016 3.6158C23.1346 3.70686 23.1012 3.81322 23.1012 3.93411C23.1012 4.08141 23.1505 4.19887 23.2504 4.28744C23.3493 4.3762 23.4851 4.44219 23.6567 4.48562L23.8939 4.5453C23.9608 4.56153 24.0265 4.5829 24.0902 4.6092C24.1396 4.62874 24.1842 4.65883 24.2208 4.69738C24.2525 4.73446 24.2694 4.78194 24.2682 4.83072C24.2687 4.88668 24.2496 4.94104 24.2141 4.98433C24.1756 5.03078 24.1254 5.06611 24.0687 5.08667C23.9995 5.11225 23.926 5.1247 23.8522 5.1234C23.7795 5.1244 23.7073 5.11261 23.6387 5.08858C23.579 5.06708 23.526 5.03035 23.4849 4.98203C23.4444 4.93114 23.4209 4.86887 23.4176 4.80394H23.0463C23.0514 4.93975 23.0876 5.05568 23.1545 5.15056C23.2215 5.24544 23.3144 5.31756 23.4338 5.36673C23.5524 5.41646 23.6934 5.44133 23.855 5.44133C24.0224 5.44133 24.1648 5.41532 24.2822 5.36481C24.4002 5.31316 24.4903 5.24181 24.5527 5.15095C24.6153 5.05932 24.6461 4.95429 24.6461 4.83378C24.6461 4.74463 24.6288 4.66697 24.5952 4.60097C24.5618 4.53532 24.5148 4.47749 24.4574 4.43129C24.3977 4.38348 24.3315 4.34438 24.2608 4.31517C24.1872 4.28397 24.111 4.25932 24.0331 4.24153L23.838 4.1937C23.7949 4.1834 23.7523 4.17095 23.7104 4.1564C23.6704 4.14277 23.632 4.12447 23.5962 4.10188C23.563 4.08198 23.5348 4.0546 23.514 4.02192C23.4932 3.98873 23.4826 3.95012 23.4837 3.91097C23.4839 3.86156 23.4998 3.8135 23.5293 3.77381C23.5591 3.73364 23.6029 3.70188 23.659 3.67816C23.7234 3.65339 23.792 3.64143 23.861 3.64296C23.9729 3.64296 24.0641 3.66707 24.1345 3.71623C24.1685 3.73917 24.1969 3.7695 24.2175 3.80494C24.2382 3.84038 24.2505 3.88003 24.2537 3.92092H24.6172C24.6172 3.81074 24.5829 3.70331 24.519 3.6135C24.4553 3.52436 24.3675 3.45415 24.2556 3.40384C24.1439 3.35315 24.0146 3.32847 23.8667 3.32847ZM22.3367 3.35602V4.8003C22.3362 4.87242 22.3249 4.93363 22.3031 4.9828C22.2834 5.02932 22.2495 5.06843 22.2063 5.09451C22.1646 5.11996 22.1129 5.13277 22.0527 5.13277C21.9972 5.13277 21.9482 5.12187 21.9052 5.10025C21.8637 5.0799 21.829 5.04794 21.8053 5.00824C21.7803 4.9646 21.7674 4.91506 21.768 4.86477H21.3925C21.3925 4.99121 21.4206 5.09681 21.478 5.18155C21.5351 5.26649 21.6156 5.33307 21.7097 5.37323C21.8136 5.41771 21.9257 5.43987 22.0387 5.43827C22.172 5.43827 22.2895 5.41264 22.3897 5.36175C22.4881 5.31289 22.5703 5.23654 22.6262 5.14195C22.6822 5.0465 22.7111 4.93287 22.7119 4.80011V3.35602H22.3367ZM12.1346 3.3673L10.4427 5.46811H11.5532L12.6889 4.05635L12.1346 3.3673ZM20.893 4.99293C20.831 4.99293 20.7783 5.01436 20.7343 5.05721C20.713 5.07683 20.6961 5.10074 20.6848 5.12734C20.6735 5.15395 20.6679 5.18266 20.6684 5.21159C20.6677 5.24084 20.6732 5.26991 20.6846 5.29688C20.6959 5.32386 20.7128 5.34812 20.7343 5.36807C20.7783 5.41111 20.831 5.43234 20.893 5.43234C20.9317 5.43262 20.9696 5.4223 21.0028 5.4025C21.0364 5.38329 21.0646 5.35592 21.0847 5.32292C21.1054 5.28945 21.1163 5.25091 21.1165 5.21159C21.1165 5.18257 21.1104 5.15387 21.0988 5.1273C21.0871 5.10073 21.0701 5.07686 21.0487 5.05721C21.0284 5.03665 21.0041 5.02036 20.9774 5.00932C20.9506 4.99829 20.922 4.99271 20.893 4.99293Z" fill="#212529"/>
</svg>