<svg xmlns="http://www.w3.org/2000/svg" width="21" height="13" viewBox="0 0 21 13" fill="none">
  <path d="M10.0403 0.5C7.37028 0.5 5.71028 1.83 5.04028 4.5C6.04028 3.17 7.21028 2.67 8.54028 3C9.30028 3.19 9.85028 3.74 10.4503 4.35C11.4303 5.35 12.5403 6.5 15.0403 6.5C17.7103 6.5 19.3703 5.17 20.0403 2.5C19.0403 3.83 17.8703 4.33 16.5403 4C15.7803 3.81 15.2403 3.26 14.6303 2.65C13.6503 1.65 12.5403 0.5 10.0403 0.5ZM5.04028 6.5C2.37028 6.5 0.710283 7.83 0.0402832 10.5C1.04028 9.17 2.21028 8.67 3.54028 9C4.30028 9.19 4.84028 9.74 5.45028 10.35C6.43028 11.35 7.54028 12.5 10.0403 12.5C12.7103 12.5 14.3703 11.17 15.0403 8.5C14.0403 9.83 12.8703 10.33 11.5403 10C10.7803 9.81 10.2403 9.26 9.63028 8.65C8.65028 7.65 7.54028 6.5 5.04028 6.5Z" fill="#212529"/>
</svg>