<svg width="16" height="15" viewBox="0 0 16 15" fill="none" xmlns="http://www.w3.org/2000/svg">
<mask id="mask0_442_1335" style="mask-type:luminance" maskUnits="userSpaceOnUse" x="0" y="0" width="16" height="15">
<path d="M0.94458 0.370361H15.2038V14.6296H0.94458V0.370361Z" fill="white"/>
</mask>
<g mask="url(#mask0_442_1335)">
<path d="M14.8645 0.370363H1.28324C1.23871 0.370363 1.19463 0.379143 1.1535 0.396199C1.11237 0.413255 1.07502 0.438253 1.04356 0.469764C1.01211 0.501274 0.987173 0.538677 0.970189 0.579833C0.953204 0.62099 0.944502 0.665091 0.944581 0.709614V14.2909C0.944502 14.3355 0.953224 14.3796 0.970245 14.4208C0.987266 14.462 1.01225 14.4995 1.04377 14.531C1.07529 14.5625 1.11272 14.5875 1.15391 14.6045C1.19511 14.6215 1.23926 14.6303 1.28383 14.6302H14.8651C14.9097 14.6303 14.9539 14.6215 14.9951 14.6045C15.0363 14.5875 15.0737 14.5625 15.1052 14.531C15.1367 14.4995 15.1617 14.462 15.1787 14.4208C15.1957 14.3796 15.2045 14.3355 15.2044 14.2909V0.70902C15.2044 0.664447 15.1956 0.620312 15.1785 0.579147C15.1614 0.537981 15.1364 0.500595 15.1048 0.469132C15.0732 0.43767 15.0357 0.412749 14.9945 0.3958C14.9533 0.378851 14.9091 0.370207 14.8645 0.370363ZM9.43238 7.99073H7.73494V13.2714H6.37675V7.99073H4.67931V6.82088H9.43238V7.99073ZM9.81262 12.9696V11.5585C9.81262 11.5585 10.5838 12.1396 11.5089 12.1396C12.4339 12.1396 12.3983 11.5347 12.3983 11.4516C12.3983 10.574 9.77698 10.574 9.77698 8.62883C9.77698 5.98374 13.5967 7.02764 13.5967 7.02764L13.5491 8.28482C13.5491 8.28482 12.9087 7.85764 12.185 7.85764C11.4613 7.85764 11.2005 8.20224 11.2005 8.56941C11.2005 9.51825 13.8456 9.42378 13.8456 11.3333C13.8456 14.2743 9.81262 12.9702 9.81262 12.9702" fill="#212529"/>
</g>
</svg>
