<svg xmlns="http://www.w3.org/2000/svg" width="16" height="15" viewBox="0 0 16 15" fill="none">
  <path d="M6.12608 6.6104L6.44632 1.19559C6.44887 1.15322 6.46543 1.1129 6.4934 1.08097C6.52136 1.04904 6.55915 1.02731 6.60082 1.0192L11.8123 -0.0022111C11.8445 -0.00853181 11.8778 -0.0064748 11.909 0.00376256C11.9401 0.0139999 11.9681 0.0320741 11.9903 0.0562507C12.0125 0.0804274 12.0281 0.109895 12.0356 0.141827C12.0431 0.173758 12.0422 0.207082 12.0331 0.2386L11.0586 3.61809C11.0496 3.64955 11.0488 3.6828 11.0562 3.71467C11.0637 3.74653 11.0792 3.77595 11.1013 3.80011C11.1234 3.82427 11.1513 3.84236 11.1824 3.85265C11.2135 3.86294 11.2467 3.86509 11.2788 3.8589L12.7725 3.57118C12.8076 3.5643 12.844 3.56743 12.8774 3.5802C12.9109 3.59296 12.9401 3.61486 12.9617 3.6434C12.9834 3.67194 12.9966 3.70597 12.9998 3.74164C13.0031 3.7773 12.9962 3.81316 12.9801 3.84514L8.73309 12.3204L8.65616 12.4393C8.63935 12.4659 8.6161 12.4879 8.58855 12.5032C8.561 12.5185 8.53005 12.5267 8.49853 12.5269C8.38782 12.5269 8.27961 12.4318 8.30776 12.296L8.99267 8.98036C8.99939 8.94788 8.99756 8.91421 8.98735 8.88266C8.97715 8.8511 8.95891 8.82274 8.93444 8.80035C8.90997 8.77796 8.88011 8.76231 8.84777 8.75494C8.81543 8.74757 8.78173 8.74874 8.74998 8.75831L7.85366 9.0304C7.82193 9.04007 7.78823 9.04132 7.75586 9.03404C7.7235 9.02676 7.69358 9.0112 7.66905 8.98887C7.64451 8.96654 7.6262 8.93822 7.61591 8.90668C7.60562 8.87515 7.6037 8.84148 7.61035 8.80898L8.04193 6.69797C8.04848 6.66645 8.04696 6.63379 8.03754 6.60301C8.02811 6.57223 8.01107 6.54433 7.988 6.52188C7.96493 6.49943 7.93657 6.48317 7.90554 6.47459C7.87452 6.46601 7.84183 6.46539 7.8105 6.47279L6.35938 6.80805C6.33042 6.81471 6.30031 6.81453 6.27143 6.80752C6.24255 6.80052 6.2157 6.78689 6.193 6.76771C6.1703 6.74854 6.15238 6.72434 6.14065 6.69703C6.12893 6.66973 6.12372 6.64007 6.12545 6.6104H6.12608ZM15.4933 1.65282L11.7542 2.33334L11.4139 3.51363L12.713 3.26344C12.8137 3.24337 12.9181 3.25475 13.0121 3.29604C13.1061 3.33733 13.1851 3.40652 13.2384 3.49424C13.2837 3.56719 13.3094 3.65057 13.3132 3.73634C13.3169 3.82211 13.2985 3.90739 13.2597 3.984L9.01206 12.4599L9.00393 12.4756L8.99454 12.4899L8.91823 12.6088C8.87317 12.6795 8.81106 12.7377 8.73762 12.7782C8.66418 12.8186 8.58175 12.8399 8.49791 12.8402C8.42202 12.8396 8.34718 12.8224 8.27867 12.7898C8.21015 12.7571 8.14963 12.7099 8.10135 12.6513C8.05451 12.5933 8.02121 12.5256 8.0039 12.4531C7.98658 12.3806 7.98569 12.3051 8.00128 12.2322L8.6449 9.11671L7.94436 9.32938C7.84853 9.35824 7.74631 9.35808 7.65058 9.32892C7.55484 9.29975 7.46989 9.24289 7.40644 9.1655C7.35905 9.10778 7.32519 9.04018 7.30733 8.96766C7.28947 8.89515 7.28807 8.81955 7.30324 8.74643L7.69729 6.81994L6.42943 7.11266C6.3436 7.1322 6.25416 7.12903 6.16993 7.10347C6.0857 7.07792 6.00957 7.03086 5.94906 6.96693C5.9019 6.91703 5.86552 6.85796 5.84217 6.7934C5.81882 6.72883 5.809 6.66016 5.81333 6.59164L6.05665 2.48221L1.40305 1.65032C1.33135 1.63738 1.25745 1.64517 1.19002 1.67278C1.12259 1.70038 1.06445 1.74666 1.02241 1.80617C0.980374 1.86568 0.956193 1.93594 0.952709 2.00872C0.949224 2.08149 0.966581 2.15375 1.00274 2.217L8.18642 14.8124C8.21998 14.8713 8.2686 14.9203 8.3273 14.9543C8.38601 14.9883 8.4527 15.0061 8.52053 15.0058C8.58837 15.0055 8.65492 14.9873 8.71337 14.9528C8.77182 14.9184 8.82007 14.8691 8.85318 14.8099L15.8961 2.21575C15.9314 2.15239 15.948 2.0803 15.9439 2.00787C15.9398 1.93545 15.9152 1.86568 15.873 1.80669C15.8308 1.7477 15.7727 1.70192 15.7055 1.67468C15.6383 1.64744 15.5647 1.63986 15.4933 1.65282Z" fill="#212529"/>
</svg>