<svg xmlns="http://www.w3.org/2000/svg" width="18" height="21" viewBox="0 0 18 21" fill="none">
  <path d="M16.1641 10.876C16.0468 10.742 15.9231 10.6077 15.7931 10.473C15.8838 10.377 15.9718 10.2813 16.0571 10.186C17.6621 8.382 18.3401 6.572 17.7121 5.485C17.1101 4.442 15.3191 4.131 13.0761 4.567C12.8555 4.61033 12.6358 4.659 12.4171 4.713C12.3751 4.569 12.3308 4.42567 12.2841 4.283C11.5231 1.99 10.2941 0.499001 9.03814 0.500001C7.83414 0.500001 6.67014 1.897 5.92714 4.058C5.85381 4.27133 5.78614 4.486 5.72414 4.702C5.57814 4.666 5.43148 4.63267 5.28414 4.602C2.91814 4.117 1.01314 4.437 0.386143 5.526C-0.214857 6.569 0.413143 8.276 1.91414 9.998C2.06348 10.168 2.21681 10.3347 2.37414 10.498C2.18814 10.688 2.01314 10.879 1.84914 11.069C0.384143 12.767 -0.207857 14.445 0.392143 15.484C1.01214 16.558 2.89014 16.909 5.17714 16.459C5.36248 16.4223 5.54681 16.381 5.73014 16.335C5.79681 16.569 5.87048 16.8013 5.95114 17.032C6.69114 19.149 7.84814 20.5 9.04814 20.5C10.2881 20.5 11.5301 19.047 12.2831 16.841C12.3431 16.667 12.3981 16.486 12.4521 16.3C12.6888 16.3587 12.9271 16.4107 13.1671 16.456C15.3701 16.873 17.1191 16.546 17.7181 15.506C18.3371 14.431 17.6981 12.629 16.1641 10.876ZM1.12614 5.952C1.51214 5.282 3.06914 5.02 5.11214 5.44C5.24281 5.46667 5.37581 5.49667 5.51114 5.53C5.31144 6.41236 5.17046 7.30699 5.08914 8.208C4.3524 8.72607 3.64993 9.29125 2.98614 9.9C2.84014 9.74867 2.69781 9.59367 2.55914 9.435C1.27214 7.961 0.764143 6.581 1.12614 5.952ZM5.01314 11.68C4.50314 11.293 4.02814 10.897 3.59714 10.499C4.02714 10.103 4.50214 9.709 5.01214 9.323C4.99348 9.71567 4.98448 10.1087 4.98514 10.502C4.98514 10.8953 4.99448 11.288 5.01314 11.68ZM5.01314 15.62C4.14636 15.813 3.25146 15.8449 2.37314 15.714C2.13236 15.6952 1.89799 15.6272 1.68454 15.5141C1.47108 15.4011 1.28308 15.2456 1.13214 15.057C0.767143 14.427 1.24314 13.079 2.49614 11.627C2.65348 11.445 2.81614 11.2677 2.98414 11.095C3.64823 11.7075 4.3521 12.2754 5.09114 12.795C5.17327 13.7074 5.31558 14.6134 5.51714 15.507C5.35048 15.549 5.18214 15.587 5.01214 15.621L5.01314 15.62ZM12.1131 7.581C11.7778 7.36967 11.4385 7.16533 11.0951 6.968C10.7565 6.77333 10.4141 6.58567 10.0681 6.405C10.637 6.16475 11.2173 5.95283 11.8071 5.77C11.9395 6.36814 12.0417 6.97257 12.1131 7.581ZM6.73614 4.335C7.37214 2.485 8.31414 1.355 9.04014 1.355C9.81314 1.354 10.8171 2.573 11.4741 4.552C11.5168 4.68133 11.5568 4.81133 11.5941 4.942C10.7317 5.20929 9.88784 5.53333 9.06814 5.912C8.25116 5.52869 7.40925 5.20095 6.54814 4.931C6.60614 4.731 6.66881 4.53233 6.73614 4.335ZM6.33614 5.759C6.92323 5.94378 7.50064 6.15806 8.06614 6.401C7.36481 6.76233 6.68214 7.156 6.01814 7.582C6.09814 6.944 6.20514 6.333 6.33614 5.759ZM6.01914 13.419C6.35048 13.6317 6.68681 13.836 7.02814 14.032C7.37614 14.232 7.72848 14.424 8.08514 14.608C7.51557 14.8594 6.93347 15.0813 6.34114 15.273C6.20352 14.661 6.09605 14.0426 6.01914 13.42V13.419ZM11.4751 16.565C11.2091 17.412 10.7894 18.2029 10.2371 18.898C10.1008 19.0973 9.925 19.2665 9.72066 19.3951C9.51633 19.5238 9.28778 19.6092 9.04914 19.646C8.32014 19.646 7.39114 18.561 6.75914 16.75C6.68448 16.536 6.61581 16.32 6.55314 16.102C7.41834 15.8229 8.26361 15.4855 9.08314 15.092C9.9098 15.4737 10.7606 15.8008 11.6301 16.071C11.5821 16.237 11.5305 16.4017 11.4751 16.565ZM11.8371 15.241C11.2397 15.0544 10.6516 14.8388 10.0751 14.595C10.4145 14.417 10.7561 14.2287 11.1001 14.03C11.4535 13.826 11.7975 13.617 12.1321 13.403C12.0653 14.0203 11.9668 14.6338 11.8371 15.241ZM12.2841 10.498C12.2841 11.1053 12.2651 11.712 12.2271 12.318C11.7341 12.652 11.2141 12.978 10.6731 13.29C10.1331 13.601 9.60014 13.887 9.07614 14.146C8.52481 13.882 7.98414 13.5973 7.45414 13.292C6.92748 12.9887 6.41281 12.6657 5.91014 12.323C5.86348 11.7163 5.84014 11.109 5.84014 10.501C5.84014 9.89367 5.86281 9.28667 5.90814 8.68C6.9134 7.99368 7.96907 7.38428 9.06614 6.857C9.61014 7.12167 10.1445 7.40533 10.6691 7.708C11.1958 8.01067 11.7125 8.33033 12.2191 8.667C12.2625 9.27633 12.2841 9.88667 12.2841 10.498ZM13.2401 5.405C15.1621 5.032 16.6101 5.283 16.9731 5.912C17.3601 6.582 16.8061 8.06 15.4191 9.618C15.3425 9.704 15.2631 9.79033 15.1811 9.877C14.5056 9.26632 13.7893 8.70235 13.0371 8.189C12.9614 7.29795 12.8261 6.41298 12.6321 5.54C12.8388 5.48933 13.0415 5.44433 13.2401 5.405ZM13.1101 9.29C13.6177 9.66045 14.1057 10.057 14.5721 10.478C14.1079 10.9058 13.6215 11.309 13.1151 11.686C13.1305 11.29 13.1381 10.894 13.1381 10.498C13.1381 10.0953 13.1288 9.69267 13.1101 9.29ZM16.9791 15.079C16.6151 15.71 15.2111 15.973 13.3261 15.617C13.1101 15.5763 12.8888 15.5277 12.6621 15.471C12.8514 14.5867 12.9807 13.6907 13.0491 12.789C13.8 12.267 14.514 11.694 15.1861 11.074C15.3041 11.196 15.4161 11.3173 15.5221 11.438C16.1232 12.0916 16.5988 12.8502 16.9251 13.676C17.0296 13.8937 17.0883 14.1306 17.0976 14.3719C17.1069 14.6132 17.0665 14.8539 16.9791 15.079ZM8.16014 8.938C7.85426 9.11463 7.60761 9.37799 7.4514 9.69478C7.29518 10.0116 7.23641 10.3676 7.28251 10.7178C7.32861 11.068 7.47751 11.3966 7.71039 11.6622C7.94327 11.9278 8.24967 12.1183 8.59085 12.2098C8.93202 12.3012 9.29265 12.2895 9.62713 12.176C9.96162 12.0625 10.2549 11.8523 10.47 11.5721C10.6851 11.2919 10.8122 10.9543 10.8354 10.6018C10.8586 10.2493 10.7767 9.89793 10.6001 9.592C10.4829 9.38882 10.3268 9.21073 10.1407 9.0679C9.9546 8.92507 9.7422 8.8203 9.51562 8.75956C9.28903 8.69883 9.0527 8.68333 8.82013 8.71395C8.58755 8.74457 8.36329 8.8207 8.16014 8.938Z" fill="#212529"/>
</svg>