<svg width="15" height="25" viewBox="0 0 15 25" fill="none" xmlns="http://www.w3.org/2000/svg">
<path d="M0.0402832 5.5H14.0403V19.5H0.0402832V5.5ZM7.63403 16.4375V11.9375H6.32153V16.4062C6.32153 17.0625 6.04028 17.25 5.63403 17.25C5.16528 17.25 4.97778 16.9375 4.79028 16.5625L3.69653 17.2188C4.00903 17.875 4.63403 18.4062 5.66528 18.4062C6.85278 18.4062 7.63403 17.7812 7.63403 16.4375ZM10.759 18.4062C12.009 18.4062 12.9465 17.7812 12.9465 16.5938C12.9465 15.5 12.3215 15 11.1965 14.5312L10.8528 14.375C10.2903 14.125 10.0403 13.9688 10.0403 13.5625C10.0403 13.25 10.2903 13 10.6653 13C11.0715 13 11.2903 13.1875 11.5403 13.5625L12.5403 12.9062C12.134 12.1562 11.509 11.875 10.6965 11.875C9.50903 11.875 8.75903 12.625 8.75903 13.5938C8.75903 14.6875 9.38403 15.1875 10.3215 15.5938L10.6653 15.7188C11.259 16 11.634 16.1562 11.634 16.5938C11.634 16.9688 11.259 17.25 10.7278 17.25C10.0715 17.25 9.72778 16.9062 9.44653 16.4688L8.35278 17.0625C8.75903 17.8438 9.54028 18.4062 10.759 18.4062Z" fill="#212529"/>
</svg>
